<?xml version="1.0" encoding="utf-8"?>
<!-- Generator: Adobe Illustrator 26.2.1, SVG Export Plug-In . SVG Version: 6.00 Build 0)  -->
<svg version="1.1" xmlns="http://www.w3.org/2000/svg" xmlns:xlink="http://www.w3.org/1999/xlink" x="0px" y="0px"
	 viewBox="0 0 540.2 566.93" style="enable-background:new 0 0 540.2 566.93;" xml:space="preserve">
<style type="text/css">
	.st0{fill:#D1181F;}
	.st1{opacity:0.24;fill:#D1181F;}
	.st2{opacity:0.35;fill:#010101;}
	.st3{fill:#670000;}
	.st4{fill:#FFFFFF;}
	.st5{fill:url(#SVGID_1_);}
	.st6{opacity:0.15;fill:#FFFFFF;}
	.st7{fill:url(#SVGID_00000004539977040472424390000005388535651759212706_);}
	.st8{fill:none;stroke:#D1181F;stroke-miterlimit:10;}
	.st9{fill:url(#SVGID_00000040571668707379126220000009817252163780808089_);}
	.st10{fill:url(#SVGID_00000179644989129181460710000014088436486986320809_);}
	.st11{fill:none;stroke:#D1181F;stroke-width:3;stroke-miterlimit:10;}
	.st12{fill:url(#SVGID_00000149350075895471314360000002119597366443145905_);}
	.st13{fill:url(#SVGID_00000136375020403835318610000007062324398138642835_);}
	.st14{fill:url(#SVGID_00000052784937761702966810000000925573728559846064_);}
	.st15{fill:#D1181F;stroke:#D1181F;stroke-width:2;stroke-miterlimit:10;}
	.st16{fill:url(#SVGID_00000116204840460738158000000002152146372725015199_);}
	.st17{opacity:0.24;}
	.st18{opacity:0.35;}
	.st19{fill:#010101;}
	.st20{fill:url(#SVGID_00000109021018009870586000000002737938189828192944_);}
	.st21{opacity:0.15;}
	.st22{fill:url(#SVGID_00000094598079952306996870000014138673098742898836_);}
	.st23{fill:url(#SVGID_00000146494960269936779850000015897084542454272642_);}
	.st24{fill:url(#SVGID_00000033369498652655472860000004678489186841386942_);}
</style>
<g id="Layer_1">
</g>
<g id="Layer_2">
	<g>
		<g>
			<polygon class="st0" points="113.58,360.22 108.22,360.22 108.22,438.1 122.9,438.1 122.9,407.19 153.48,407.19 153.48,393.05 
				122.9,393.05 122.9,374.36 159.38,374.36 159.38,360.22 122.9,360.22 			"/>
			<path class="st0" d="M211.31,362.97c-4.3-2.37-9.28-3.56-14.92-3.56c-5.64,0-10.62,1.19-14.92,3.56
				c-4.3,2.38-7.63,5.73-9.99,10.07c-2.36,4.34-3.54,9.37-3.54,15.08v22.07c0,5.71,1.18,10.74,3.54,15.08
				c2.36,4.34,5.68,7.7,9.99,10.07c4.3,2.38,9.27,3.56,14.92,3.56c5.64,0,10.61-1.19,14.92-3.56c4.3-2.37,7.63-5.73,9.99-10.07
				c2.36-4.34,3.54-9.36,3.54-15.08v-22.07c0-5.71-1.18-10.74-3.54-15.08C218.94,368.71,215.61,365.35,211.31,362.97z
				 M209.62,410.57c0,2.71-0.55,5.11-1.63,7.18c-1.09,2.07-2.63,3.67-4.63,4.79c-2,1.12-4.32,1.69-6.96,1.69
				c-2.64,0-4.96-0.56-6.96-1.69c-2-1.12-3.54-2.72-4.63-4.79c-1.09-2.07-1.63-4.46-1.63-7.18v-22.82c0-2.71,0.55-5.11,1.63-7.18
				c1.09-2.07,2.63-3.67,4.63-4.79c2-1.12,4.32-1.69,6.96-1.69c2.64,0,4.96,0.56,6.96,1.69c2,1.12,3.54,2.72,4.63,4.79
				c1.09,2.07,1.63,4.46,1.63,7.18V410.57z"/>
			<path class="st0" d="M279.98,362.97c-4.3-2.37-9.28-3.56-14.92-3.56c-5.64,0-10.62,1.19-14.92,3.56
				c-4.3,2.38-7.63,5.73-9.99,10.07c-2.36,4.34-3.54,9.37-3.54,15.08v22.07c0,5.71,1.18,10.74,3.54,15.08
				c2.36,4.34,5.68,7.7,9.99,10.07c4.3,2.38,9.27,3.56,14.92,3.56c5.64,0,10.61-1.19,14.92-3.56c4.3-2.37,7.63-5.73,9.99-10.07
				c2.36-4.34,3.54-9.36,3.54-15.08v-22.07c0-5.71-1.18-10.74-3.54-15.08C287.61,368.71,284.28,365.35,279.98,362.97z
				 M278.29,410.57c0,2.71-0.55,5.11-1.63,7.18c-1.09,2.07-2.63,3.67-4.63,4.79c-2,1.12-4.32,1.69-6.96,1.69
				c-2.64,0-4.96-0.56-6.96-1.69c-2-1.12-3.54-2.72-4.63-4.79c-1.09-2.07-1.63-4.46-1.63-7.18v-22.82c0-2.71,0.55-5.11,1.63-7.18
				c1.09-2.07,2.63-3.67,4.63-4.79c2-1.12,4.32-1.69,6.96-1.69c2.64,0,4.96,0.56,6.96,1.69c2,1.12,3.54,2.72,4.63,4.79
				c1.09,2.07,1.63,4.46,1.63,7.18V410.57z"/>
			<path class="st0" d="M350.36,363.48c-4.59-2.18-10.13-3.27-16.63-3.27h-11.09h-7.28h-7.39v77.88h7.39h7.28h11.04
				c6.68,0,12.32-1.16,16.93-3.48c4.61-2.32,8.06-5.57,10.37-9.75c2.3-4.18,3.46-9.07,3.46-14.68v-22.07c0-5.89-1.2-10.93-3.59-15.1
				C358.44,368.84,354.95,365.66,350.36,363.48z M349.21,410.62c0,4.25-1.32,7.54-3.96,9.86c-2.64,2.32-6.37,3.48-11.19,3.48h-11.41
				v-49.6h11.41c4.82,0,8.55,1.16,11.19,3.48c2.64,2.32,3.96,5.61,3.96,9.86V410.62z"/>
			<path class="st0" d="M428.65,402.67c-2.22-3.05-4.97-5.27-8.28-6.64c-3.3-1.37-7.42-2.54-12.35-3.51
				c-0.21-0.03-0.42-0.08-0.62-0.13c-0.2-0.05-0.4-0.1-0.61-0.13c-0.14-0.04-0.29-0.06-0.43-0.08s-0.29-0.04-0.43-0.08
				c-3.43-0.68-6.09-1.32-7.98-1.93c-1.89-0.61-3.48-1.56-4.77-2.86s-1.93-3.08-1.93-5.33v-0.05c0-2.68,1.23-4.76,3.69-6.24
				c2.46-1.48,5.95-2.22,10.45-2.22c3,0,6.13,0.57,9.4,1.72c3.27,1.14,6.4,2.75,9.4,4.82l6.21-12.43c-2.5-1.71-5.14-3.18-7.93-4.39
				c-2.79-1.21-5.63-2.14-8.54-2.78c-2.91-0.64-5.76-0.96-8.54-0.96c-6.07,0-11.25,0.94-15.53,2.81s-7.55,4.6-9.8,8.17
				s-3.37,7.87-3.37,12.91v0.05c0,5.68,1.2,10.06,3.59,13.15s5.3,5.25,8.73,6.48s7.75,2.26,12.96,3.08l1.18,0.16
				c0.11,0.04,0.21,0.05,0.3,0.05c0.09,0,0.19,0.02,0.3,0.05c2.96,0.47,5.39,0.98,7.28,1.55c1.89,0.57,3.43,1.46,4.61,2.68
				c1.18,1.21,1.77,2.86,1.77,4.93v0.05c0,2.97-1.32,5.26-3.96,6.88c-2.64,1.63-6.36,2.44-11.14,2.44c-4.14,0-8.18-0.67-12.11-2.01
				c-3.93-1.34-7.39-3.24-10.39-5.7l-6.8,12.11c2.46,2.04,5.26,3.77,8.38,5.22c3.12,1.45,6.46,2.54,10.02,3.29
				c3.55,0.75,7.19,1.12,10.9,1.12c6.25,0,11.6-0.93,16.04-2.78s7.83-4.55,10.15-8.09c2.32-3.54,3.48-7.78,3.48-12.75v-0.11
				C431.97,409.89,430.87,405.72,428.65,402.67z"/>
		</g>
		<g>
			<path class="st0" d="M425.07,334.74H115.12c-3.8,0-6.87-3.08-6.87-6.87s3.07-6.87,6.87-6.87h309.95c3.8,0,6.87,3.08,6.87,6.87
				S428.87,334.74,425.07,334.74z"/>
		</g>
		<g>
			<g>
				<g>
					<path class="st0" d="M355.01,295.51h-0.79c-7.28,0-13.06-5.5-12.66-12.03l0.52-8.78l0.14-2.3l0.25-4.23l0-0.08l0.13-2.24
						l0.04-0.74l0.15-2.57l0.05-0.89l0.12-2.08l0.01-0.25l0.14-2.32l0.11-1.87l0.07-1.11l0.07-1.25l4.78-80.22l0.08-1.29
						c-28.38-111.46,2.31-134.43,12.73-138.91c0.26-0.11,0.53-0.17,0.79-0.18c1.24-0.05,2.36,0.95,2.32,2.3l-3.68,136.8l5.27,81.49
						l0.09,1.32l0.07,1.08l0.12,1.91l0.14,2.24l0.02,0.33l0.13,2.04l0.06,0.94l0.17,2.58l0.04,0.65l0.15,2.34l0,0.01l0.27,4.19
						l0.15,2.34l0.56,8.7C368.1,289.98,362.31,295.51,355.01,295.51z"/>
				</g>
				<g>
					<path class="st0" d="M361.77,32.17l-3.42,131.7c0,0-2.82,4.06-10.1,7.39l0,0c-28.38-111.46,2.31-134.43,12.73-138.91
						C361.24,32.24,361.51,32.18,361.77,32.17z"/>
				</g>
				<g>
					<polygon class="st0" points="349.16,172.76 348.64,172.35 348.32,172.42 348.32,172.11 347.61,171.55 348.43,169.6 
						346.78,168.27 347.62,166.32 345.98,164.98 346.83,163.04 345.2,161.69 346.06,159.76 344.44,158.4 345.31,156.47 343.7,155.1 
						344.59,153.18 342.99,151.79 343.89,149.88 342.3,148.48 343.21,146.58 341.63,145.17 342.57,143.27 341,141.85 341.95,139.96 
						340.39,138.52 341.36,136.64 339.81,135.19 340.8,133.32 339.27,131.86 340.27,130 338.76,128.52 339.77,126.67 338.28,125.18 
						339.32,123.33 337.83,121.83 338.89,120 337.43,118.47 338.51,116.65 337.06,115.11 338.17,113.3 336.74,111.74 337.87,109.94 
						336.46,108.36 337.61,106.58 336.22,104.97 337.41,103.2 336.04,101.58 337.25,99.83 335.92,98.18 337.15,96.46 335.85,94.79 
						337.12,93.09 335.84,91.4 337.14,89.73 335.9,88.01 337.24,86.36 336.03,84.62 337.4,83 336.24,81.23 337.65,79.65 
						336.53,77.86 337.98,76.31 336.91,74.48 338.4,72.97 337.39,71.11 338.93,69.65 337.97,67.76 339.56,66.35 338.67,64.42 
						340.31,63.08 339.5,61.11 341.19,59.84 340.46,57.84 342.22,56.64 341.58,54.61 343.4,53.5 342.87,51.43 344.75,50.42 
						344.34,48.33 346.28,47.44 346.02,45.32 348.01,44.57 347.91,42.43 349.96,41.84 350.03,39.7 352.13,39.29 352.4,37.16 
						354.53,36.96 355.02,34.87 357.16,34.9 357.89,32.87 360.02,33.17 360.84,31.57 361.59,31.96 360.49,34.09 358.45,33.81 
						357.75,35.75 355.68,35.72 355.21,37.74 353.15,37.94 352.89,40 350.85,40.4 350.78,42.48 348.78,43.06 348.89,45.14 
						346.94,45.87 347.2,47.94 345.3,48.82 345.69,50.87 343.85,51.86 344.37,53.89 342.58,54.99 343.21,56.98 341.48,58.17 
						342.2,60.13 340.53,61.39 341.33,63.33 339.71,64.66 340.59,66.57 339.02,67.96 339.96,69.83 338.44,71.28 339.44,73.12 
						337.96,74.61 339.03,76.43 337.59,77.96 338.7,79.74 337.3,81.31 338.45,83.07 337.09,84.67 338.29,86.4 336.96,88.04 
						338.2,89.74 336.9,91.41 338.17,93.09 336.91,94.78 338.21,96.44 336.98,98.15 338.31,99.79 337.1,101.53 338.46,103.15 
						337.28,104.9 338.66,106.5 337.51,108.28 338.92,109.86 337.79,111.65 339.22,113.2 338.11,115 339.56,116.54 338.48,118.35 
						339.94,119.87 338.88,121.69 340.36,123.2 339.33,125.03 340.82,126.52 339.8,128.36 341.31,129.84 340.32,131.69 
						341.84,133.15 340.86,135.02 342.4,136.46 341.44,138.34 342.99,139.77 342.04,141.65 343.6,143.07 342.67,144.97 
						344.25,146.37 343.34,148.27 344.92,149.66 344.02,151.57 345.62,152.95 344.73,154.87 346.34,156.24 345.47,158.16 
						347.09,159.52 346.23,161.45 347.86,162.8 347.01,164.74 348.65,166.07 347.81,168.02 349.46,169.34 348.91,170.63 
						349.16,170.63 					"/>
				</g>
			</g>
			<g>
				<path class="st0" d="M415.29,123.69l8.35,129.1l0.09,1.42l0.06,0.92l0.13,2.07l0.14,2.14l0.03,0.44l0.12,1.87l0.07,1.11
					l0.17,2.58l0.04,0.54l0.15,2.28l0.01,0.17l0.27,4.1l0.15,2.26l0.56,8.67c0.44,6.59-5.39,12.16-12.73,12.16h-0.8
					c-7.32,0-13.14-5.53-12.73-12.11l0.52-8.76l0.13-2.19l0.26-4.33l0.01-0.1l0.13-2.12l0.05-0.86l0.15-2.57l0.05-0.87l0.13-2.1
					l0.01-0.14l0.14-2.43l0.11-1.85l0.07-1.13l0.07-1.14l7.7-129.13c0.15-4.82-1.96-9.45-5.74-12.46
					c-3.46-2.75-6.36-7.06-8.35-12.34c-1.7-4.5-2.53-9.27-2.53-14.08l3.89-51.96c0.03-0.38,0.35-0.68,0.74-0.68h0.1
					c0.41,0,0.74,0.33,0.74,0.74v52.58c0,0.82,0.33,1.56,0.87,2.1c0.54,0.54,1.28,0.87,2.1,0.87c1.64,0,2.97-1.33,2.97-2.97
					l2.84-52.62c0.02-0.36,0.3-0.65,0.66-0.69c0.03,0,0.05,0,0.08,0h0.23c0.4,0,0.73,0.32,0.74,0.72l0.92,52.59
					c0,1.66,1.36,3,3.02,2.97c1.63-0.03,2.92-1.39,2.92-3.02l1.15-52.55c0.01-0.4,0.34-0.72,0.74-0.72h0.44
					c0.39,0,0.72,0.31,0.74,0.7l2.4,52.61c0,1.62,1.3,2.94,2.91,2.97c1.66,0.03,3.03-1.36,3.03-3.03V32.89
					c0-0.41,0.33-0.74,0.74-0.74c0.39,0,0.71,0.3,0.74,0.68l3.99,51.97c0,4.81-0.83,9.58-2.53,14.08
					c-1.99,5.29-4.89,9.59-8.35,12.34C417.25,114.24,415.14,118.87,415.29,123.69z"/>
				<path class="st0" d="M421.04,111.22c3.46-2.75,6.36-7.06,8.35-12.34c1.7-4.5,2.53-9.28,2.53-14.08l-3.99-51.96
					c-0.03-0.38-0.35-0.68-0.73-0.68c-0.41,0-0.74,0.33-0.74,0.74v52.52c0,1.66-1.36,3.06-3.03,3.03c-1.61-0.03-2.91-1.35-2.91-2.97
					l-2.4-52.61c-0.02-0.39-0.34-0.7-0.74-0.7h-0.44c-0.4,0-0.73,0.32-0.74,0.72l-1.14,52.55c0,1.63-1.29,2.99-2.92,3.02
					c-1.66,0.03-3.02-1.31-3.02-2.97l-0.92-52.59c-0.01-0.4-0.33-0.72-0.74-0.72h-0.23c-0.03,0-0.05,0-0.08,0
					c-0.35,0.04-0.64,0.33-0.66,0.69l-2.84,52.62c0,1.64-1.33,2.97-2.97,2.97c-0.82,0-1.56-0.33-2.1-0.87
					c-0.54-0.54-0.87-1.28-0.87-2.1V32.89c0-0.41-0.33-0.74-0.74-0.74h-0.1c-0.39,0-0.71,0.3-0.74,0.68l-3.89,51.96
					c0,4.81,0.83,9.58,2.53,14.08c1.99,5.29,4.89,9.59,8.35,12.34c2.37,1.89,4.09,4.42,5,7.23c1.06-0.5,2.44-0.8,3.95-0.8
					c1.51,0,2.89,0.3,3.95,0.8C416.95,115.64,418.66,113.11,421.04,111.22z"/>
				<path class="st1" d="M426.45,65.74v19.67c0,1.66-1.36,3.06-3.03,3.03c-1.61-0.03-2.91-1.35-2.91-2.97l-0.72-15.88
					c-1.53,0.95-3.02,1.93-4.46,2.93l-0.28,12.9c0,1.63-1.29,2.99-2.92,3.02c-1.66,0.03-3.02-1.31-3.02-2.97l-0.14-8.22
					c-1.78,1.42-3.48,2.86-5.11,4.32l-0.21,3.9c0,1.64-1.33,2.97-2.97,2.97c-0.82,0-1.56-0.33-2.1-0.87
					c-0.16-0.16-0.3-0.34-0.42-0.54c-1.83,1.87-3.54,3.75-5.15,5.61c0.42,2.12,1.01,4.21,1.77,6.24c1.99,5.29,4.89,9.59,8.35,12.34
					c2.37,1.89,4.09,4.42,5,7.23c1.06-0.5,2.44-0.8,3.95-0.8c1.51,0,2.89,0.3,3.95,0.8c0.91-2.81,2.63-5.34,5-7.23
					c3.46-2.75,6.36-7.06,8.35-12.34c1.7-4.5,2.53-9.28,2.53-14.08l-1.61-21.01C428.99,64.42,427.71,65.07,426.45,65.74z"/>
			</g>
			<g>
				<path class="st0" d="M152.81,289.82c40.99-2.93,79.16-30.89,92.93-69.32c4.38-11.88,6.55-24.83,6.16-37.37
					c-0.28-7.85-1.54-20.01-2.1-27.93c0,0-2.37-29.09-2.37-29.09h43.28l-2.37,29.09c-0.82,8.97-1.52,21.45-2.72,30.24
					c-1.72,12.4-5.2,24.36-10.24,35.65c-16.71,37.56-52.33,65.93-92.53,72.68c-10.01,1.69-20.13,2.14-30.04,1.39V289.82
					L152.81,289.82z"/>
				<g>
					<path class="st2" d="M201.06,34.75c-21.42,0-41.13,7.35-56.73,19.67c-21.26,16.78-34.9,42.78-34.9,71.97
						c0,50.61,41.03,91.64,91.64,91.64c17.42,0,33.7-4.86,47.57-13.3c26.42-16.08,44.07-45.15,44.07-78.34
						C292.7,75.78,251.67,34.75,201.06,34.75z"/>
					<g>
						<g>
							<path class="st3" d="M291.55,123.82c0,33.19-17.65,62.26-44.07,78.34c-13.87,8.44-30.15,13.3-47.57,13.3
								c-50.61,0-91.64-41.03-91.64-91.64c0-29.19,13.64-55.19,34.9-71.97c15.6-12.32,35.31-19.67,56.73-19.67
								C250.53,32.19,291.55,73.21,291.55,123.82z"/>
							<circle class="st0" cx="199.92" cy="123.82" r="90.55"/>
							<circle class="st4" cx="199.92" cy="125.15" r="60.08"/>
							<linearGradient id="SVGID_1_" gradientUnits="userSpaceOnUse" x1="199.9153" y1="64.1216" x2="199.9153" y2="183.3146">
								<stop  offset="0" style="stop-color:#D1181F"/>
								<stop  offset="0.9946" style="stop-color:#F3F3F3"/>
							</linearGradient>
							<circle class="st5" cx="199.92" cy="123.88" r="60.08"/>
							<circle class="st0" cx="199.92" cy="123.88" r="48.31"/>
						</g>
						<path class="st6" d="M291.55,123.82c0,33.19-17.65,62.26-44.07,78.34c-0.04-0.4-0.08-0.81-0.12-1.21
							c-1.17-11.28-3.39-21.91-6.42-31.91c-0.1-0.33-0.2-0.66-0.3-0.99c-1.31-4.24-2.77-8.36-4.36-12.37
							c-13.13-33.14-35-58.43-55.24-76.3c-3.03-2.67-6.01-5.18-8.93-7.52c-0.32-0.26-0.64-0.51-0.95-0.76
							c-10.52-8.36-20.05-14.55-26.96-18.66c-0.34-0.2-0.68-0.4-1.01-0.6c15.6-12.32,35.31-19.67,56.73-19.67
							C250.53,32.19,291.55,73.21,291.55,123.82z"/>
					</g>
				</g>
			</g>
		</g>
	</g>
	<g>
		<path class="st0" d="M135.96,489.3c0,2-0.45,3.89-1.36,5.68c-1.03,2-2.48,3.58-4.36,4.73c-2.14,1.31-4.71,1.96-7.71,1.96
			c-3.95,0-7.08-1.22-9.39-3.67c-2.18-2.32-3.28-5.32-3.28-8.98c0-3.6,1.3-6.55,3.9-8.84c2.31-2.03,4.93-3.05,7.87-3.05h1.5
			l-0.3,0.65c-2.92,0-5.42,1-7.48,3c-2.14,2.06-3.21,4.64-3.21,7.73c0,2.86,1.02,5.31,3.05,7.34c2.03,2.03,4.48,3.05,7.34,3.05
			c3.52,0,6.22-1.02,8.1-3.07c1.71-1.86,2.56-4.35,2.56-7.45v-13.25l2.77-2.77V489.3z M125.69,485.4c0,0.54-0.19,1-0.58,1.38
			c-0.38,0.38-0.85,0.58-1.41,0.58c-0.54,0-1-0.19-1.4-0.57c-0.39-0.38-0.59-0.84-0.59-1.4s0.19-1.02,0.58-1.41
			c0.38-0.38,0.85-0.58,1.41-0.58c0.55,0,1.02,0.19,1.41,0.58C125.5,484.38,125.69,484.85,125.69,485.4z"/>
		<path class="st0" d="M147.41,490.13h-6.83V453.9l2.77-2.77v36.23h4.06V490.13z"/>
		<path class="st0" d="M173.44,490.13h-1.18c-1.57,0-3.01-0.4-4.31-1.2c-0.92-0.57-1.95-1.48-3.07-2.72
			c-0.85-0.94-1.69-1.88-2.54-2.84c-1.38,1.28-2.43,2.18-3.14,2.72c-1.54,1.18-3.05,2.11-4.55,2.77c-1.94,0.85-3.87,1.27-5.79,1.27
			h-1.45v-2.77h1.45c1.51,0,3.06-0.34,4.66-1.02c1.35-0.57,2.67-1.34,3.95-2.31c0.97-0.74,1.89-1.58,2.77-2.52
			c-1.37-1.12-2.34-1.9-2.91-2.33c-1.23-0.91-2.45-1.67-3.65-2.28c-1.48-0.75-3.18-1.42-5.1-1.98v-2.17
			c0.95-0.63,2.25-1.12,3.88-1.45c1.34-0.28,2.9-0.46,4.68-0.55c1.78-0.09,3.83-0.14,6.14-0.14h6.9v2.77c0,0.66-0.42,1.56-1.27,2.7
			c-0.15,0.2-1.71,1.96-4.66,5.28c1.2,1.26,2.4,2.52,3.6,3.76c1.62,1.49,3.08,2.24,4.41,2.24h1.18V490.13z M167.18,473.63v-0.25
			h-3.9c-2.63,0-4.7,0.03-6.21,0.08c-1.51,0.05-2.73,0.19-3.67,0.4v0.09c0.8,0.2,1.7,0.58,2.7,1.15c0.78,0.45,1.78,1.12,3,2.01
			c0.95,0.69,1.98,1.5,3.09,2.42c0.62-0.63,1.24-1.26,1.87-1.89c0.91-0.94,1.61-1.71,2.1-2.31
			C166.84,474.51,167.18,473.94,167.18,473.63z"/>
		<path class="st0" d="M202.05,479.63l-2.77,2.77h-1.96c-3.31,0-6.19,0.66-8.65,1.98c-1.92,1.25-3.84,2.49-5.75,3.74
			c-2.32,1.34-4.92,2.01-7.78,2.01h-1.71v-2.77h1.71c1.98,0,3.92-0.45,5.81-1.34c0.72-0.34,2.35-1.31,4.87-2.91
			c2-1.26,3.74-2.14,5.21-2.63l-7.52-4.87c-0.49-0.38-1.1-0.71-1.82-0.98c-0.72-0.27-1.35-0.4-1.87-0.4h-0.46
			c-0.77,0-1.52,0.33-2.24,0.99c-0.72,0.66-1.08,1.43-1.08,2.31v1.36l-0.42,0.16c-0.17-0.29-0.29-0.53-0.37-0.72
			c-0.25-0.58-0.37-1.15-0.37-1.68c0-1.51,0.38-2.73,1.13-3.67c0.81-1.02,1.93-1.52,3.35-1.52h0.46c1.71,0,3.53,0.63,5.47,1.89
			l6.88,4.5c0.6,0.38,1.31,0.76,2.15,1.13c1,0.43,1.78,0.65,2.33,0.65H202.05z M189.52,494.88c0,0.54-0.19,1-0.58,1.38
			c-0.38,0.38-0.85,0.58-1.41,0.58c-0.54,0-1-0.19-1.4-0.57c-0.39-0.38-0.59-0.84-0.59-1.4s0.19-1.02,0.58-1.41
			c0.38-0.38,0.85-0.58,1.41-0.58s1.02,0.19,1.41,0.58C189.33,493.86,189.52,494.33,189.52,494.88z"/>
		<path class="st0" d="M259.11,490.13h-1.02c-1.18,0-2.13-0.18-2.84-0.55s-1.28-0.94-1.71-1.71c-0.23,0.69-0.72,1.24-1.45,1.65
			s-1.65,0.61-2.72,0.61h-18.65c-2.71,0-4.85-0.5-6.44-1.5c-1.74-1.09-2.61-2.67-2.61-4.73c0-1.38,0.53-2.81,1.59-4.29
			c0.52-0.72,1.48-1.78,2.86-3.16l1.31-1.32l0.44,0.6l-0.99,1.32c-0.72,0.95-1.25,1.68-1.57,2.17c-1,1.51-1.5,2.78-1.5,3.83
			c0,1.48,0.81,2.61,2.42,3.39c1.28,0.62,2.77,0.92,4.48,0.92h18.65c0.92,0,1.58-0.25,1.96-0.75c0.38-0.5,0.58-1.33,0.58-2.48v-9
			l2.77-2.77v11.12c0,1.05,0.34,1.95,1.02,2.72c0.68,0.77,1.48,1.15,2.4,1.15h1.02V490.13z M239.94,473.17c0,0.54-0.19,1-0.58,1.38
			c-0.38,0.38-0.85,0.58-1.41,0.58c-0.54,0-1-0.19-1.4-0.57c-0.39-0.38-0.59-0.84-0.59-1.4s0.19-1.02,0.58-1.41
			c0.38-0.38,0.85-0.58,1.41-0.58s1.02,0.19,1.41,0.58C239.75,472.15,239.94,472.62,239.94,473.17z M244.81,473.17
			c0,0.54-0.19,1-0.58,1.38c-0.38,0.38-0.85,0.58-1.41,0.58c-0.54,0-1-0.19-1.4-0.57c-0.39-0.38-0.59-0.84-0.59-1.4
			s0.19-1.02,0.58-1.41c0.38-0.38,0.85-0.58,1.41-0.58s1.02,0.19,1.41,0.58C244.61,472.15,244.81,472.62,244.81,473.17z"/>
		<path class="st0" d="M268.02,484.13c0,2.03-0.52,3.55-1.57,4.57c-0.98,0.95-2.38,1.43-4.2,1.43h-3.14v-2.77h3.14
			c0.98,0,1.72-0.22,2.19-0.67c0.54-0.51,0.81-1.36,0.81-2.56v-9l2.77-2.77V484.13z M266.06,467.68c0,0.54-0.19,1-0.58,1.38
			c-0.38,0.38-0.85,0.58-1.41,0.58c-0.54,0-1-0.19-1.4-0.57c-0.39-0.38-0.59-0.84-0.59-1.4s0.19-1.02,0.58-1.41
			c0.38-0.38,0.85-0.58,1.41-0.58c0.55,0,1.02,0.19,1.41,0.58C265.87,466.66,266.06,467.13,266.06,467.68z"/>
		<path class="st0" d="M282.97,463.9l-1.22,1.96c-0.62,0.08-1.26,0.22-1.94,0.42c-0.68,0.2-1.37,0.4-2.08,0.6
			c-0.71,0.2-1.38,0.36-2.01,0.47c-0.63,0.12-1.32,0.17-2.08,0.17h-1.02l1.27-1.94h0.51c0.37,0,0.67-0.09,0.9-0.28
			c-0.35-0.34-0.63-0.67-0.83-0.99c-0.29-0.48-0.44-0.95-0.44-1.43c0-0.92,0.32-1.63,0.97-2.12c0.65-0.49,1.46-0.74,2.45-0.74
			c0.69,0,1.37,0.25,2.03,0.74c0.22,0.15,0.48,0.4,0.78,0.74l-0.39,0.35c-0.31-0.12-0.55-0.22-0.72-0.28
			c-0.55-0.2-0.95-0.3-1.18-0.3c-0.49,0-0.91,0.14-1.25,0.42c-0.34,0.28-0.51,0.68-0.51,1.2c0,0.45,0.27,0.86,0.8,1.23
			c0.53,0.38,1.08,0.57,1.65,0.57c0.82-0.2,1.57-0.38,2.25-0.54S282.3,463.9,282.97,463.9z M278.68,490.13
			c0,3.48-0.31,6.45-0.92,8.93c-0.49,1.98-1.18,3.65-2.05,4.98c-0.62,0.92-1.31,1.67-2.08,2.24h-0.32c0.08,0,0.3-0.39,0.67-1.18
			c0.54-1.14,0.96-2.45,1.27-3.95c0.45-2.12,0.67-4.53,0.67-7.22v-25.31l2.77-0.72V490.13z M278.68,459.03
			c-0.29-0.09-0.5-0.15-0.61-0.17c-0.12-0.02-0.35-0.03-0.7-0.03c-0.46,0-0.95,0.1-1.45,0.3v-4.96l2.77-2.77V459.03z"/>
		<path class="st0" d="M303.05,487.36c0,4.4-0.31,7.98-0.92,10.73c-0.49,2.18-1.22,3.98-2.17,5.38c-0.4,0.58-1.25,1.52-2.54,2.82
			h-0.32c0.05,0,0.32-0.49,0.81-1.48c0.65-1.29,1.16-2.59,1.55-3.9c0.55-1.89,0.83-3.73,0.83-5.52v-7.36
			c-0.6,0.65-1.34,1.16-2.22,1.53c-0.88,0.38-1.79,0.57-2.75,0.57c-2.4,0-4.31-0.86-5.72-2.58c-1.34-1.63-2.01-3.73-2.01-6.3
			c0-2.51,0.72-4.62,2.17-6.32c1.45-1.71,3.3-2.56,5.56-2.56c2.26,0,4.12,0.85,5.56,2.56s2.17,3.82,2.17,6.32V487.36z
			 M300.28,481.25c0-1.72-0.44-3.15-1.32-4.29c-0.94-1.22-2.15-1.82-3.65-1.82c-1.48,0-2.67,0.59-3.59,1.78
			c-0.92,1.19-1.37,2.63-1.37,4.34c0,1.72,0.44,3.15,1.31,4.29c0.94,1.22,2.15,1.82,3.65,1.82c1.48,0,2.68-0.61,3.62-1.82
			C299.83,484.39,300.28,482.96,300.28,481.25z"/>
		<path class="st0" d="M360.11,490.13h-1.02c-1.18,0-2.13-0.18-2.84-0.55s-1.28-0.94-1.71-1.71c-0.23,0.69-0.72,1.24-1.45,1.65
			s-1.65,0.61-2.72,0.61h-18.65c-2.71,0-4.85-0.5-6.44-1.5c-1.74-1.09-2.61-2.67-2.61-4.73c0-1.38,0.53-2.81,1.59-4.29
			c0.52-0.72,1.48-1.78,2.86-3.16l1.31-1.32l0.44,0.6l-0.99,1.32c-0.72,0.95-1.25,1.68-1.57,2.17c-1,1.51-1.5,2.78-1.5,3.83
			c0,1.48,0.81,2.61,2.42,3.39c1.28,0.62,2.77,0.92,4.48,0.92h18.65c0.92,0,1.58-0.25,1.96-0.75c0.38-0.5,0.58-1.33,0.58-2.48V453.9
			l2.77-2.77v32.35c0,1.05,0.34,1.95,1.02,2.72c0.68,0.77,1.48,1.15,2.4,1.15h1.02V490.13z M343.22,472.62l-0.67,1.98
			c-0.11,0-0.25,0-0.42,0.01s-0.37,0.07-0.6,0.2l-1.73,0.88c-0.12,0.08-0.18,0.18-0.18,0.32s0.06,0.24,0.18,0.3l1.71,0.85
			c0.46,0.23,0.81,0.51,1.04,0.84c0.23,0.33,0.35,0.67,0.35,1c0,0.49-0.08,0.88-0.25,1.15c-0.23,0.37-0.65,0.65-1.25,0.83
			l-0.76,0.23c-0.45,0.12-0.84,0.18-1.18,0.18c-0.6,0-1.18-0.15-1.75-0.44c-0.34-0.2-0.67-0.4-0.99-0.6v-0.3
			c0.06,0,0.18,0.01,0.36,0.02s0.36,0.02,0.54,0.02c0.29,0,0.59-0.02,0.89-0.06c0.3-0.04,0.58-0.1,0.84-0.2l1.29-0.44
			c0.17-0.09,0.25-0.22,0.25-0.37c0-0.15-0.08-0.28-0.23-0.37l-1.8-0.9c-0.4-0.2-0.7-0.45-0.91-0.74c-0.21-0.29-0.31-0.6-0.31-0.92
			c0-0.43,0.1-0.79,0.31-1.08c0.21-0.29,0.53-0.58,0.96-0.85l1.71-0.85c0.75-0.37,1.42-0.6,1.98-0.69
			C342.78,472.63,342.99,472.62,343.22,472.62z"/>
		<path class="st0" d="M379.64,490.13h-19.52v-2.77h3.05c-1.32-1.66-1.98-3.7-1.98-6.11c0-2.51,0.72-4.62,2.17-6.32
			c1.45-1.71,3.3-2.56,5.56-2.56c2.26,0,4.12,0.85,5.56,2.55c1.45,1.7,2.17,3.81,2.17,6.33c0,2.43-0.67,4.47-2.01,6.11h5.01V490.13z
			 M366.02,467.68c0,0.54-0.19,1-0.58,1.38c-0.38,0.38-0.85,0.58-1.41,0.58c-0.54,0-1-0.19-1.4-0.57c-0.39-0.38-0.59-0.84-0.59-1.4
			s0.19-1.02,0.58-1.41c0.38-0.38,0.85-0.58,1.41-0.58s1.02,0.19,1.41,0.58C365.83,466.66,366.02,467.13,366.02,467.68z
			 M373.87,481.25c0-1.72-0.44-3.15-1.32-4.29c-0.94-1.22-2.15-1.82-3.65-1.82c-1.48,0-2.67,0.59-3.59,1.78
			c-0.92,1.19-1.37,2.63-1.37,4.34c0,1.72,0.44,3.15,1.32,4.29c0.94,1.22,2.15,1.82,3.65,1.82c1.48,0,2.68-0.61,3.62-1.82
			C373.42,484.39,373.87,482.96,373.87,481.25z M370.89,467.68c0,0.54-0.19,1-0.58,1.38c-0.38,0.38-0.85,0.58-1.41,0.58
			c-0.54,0-1-0.19-1.4-0.57c-0.39-0.38-0.59-0.84-0.59-1.4s0.19-1.02,0.58-1.41c0.38-0.38,0.85-0.58,1.41-0.58
			c0.55,0,1.02,0.19,1.41,0.58C370.7,466.66,370.89,467.13,370.89,467.68z"/>
		<path class="st0" d="M408.85,490.13h-1.27c-2.66,0-4.88-0.47-6.65-1.41c-2.06-1.09-3.09-2.66-3.09-4.71v-0.85
			c-1.65,0.49-3.41,1.38-5.28,2.65c-2.38,1.62-3.93,2.59-4.64,2.93c-1.95,0.92-4.15,1.38-6.58,1.38h-1.71v-2.77h1.71
			c1.98,0,3.92-0.45,5.81-1.34c0.72-0.34,2.35-1.31,4.87-2.91c2-1.26,3.74-2.14,5.21-2.63l-7.52-4.87c-0.49-0.38-1.1-0.71-1.82-0.98
			c-0.72-0.27-1.35-0.4-1.87-0.4h-0.46c-0.77,0-1.52,0.33-2.24,0.99c-0.72,0.66-1.08,1.43-1.08,2.31v1.36l-0.42,0.16
			c-0.17-0.29-0.29-0.53-0.37-0.72c-0.25-0.58-0.37-1.15-0.37-1.68c0-1.51,0.38-2.73,1.13-3.67c0.81-1.02,1.93-1.52,3.35-1.52h0.46
			c1.71,0,3.53,0.63,5.47,1.89l6.88,4.5c0.6,0.38,1.31,0.76,2.15,1.13c1,0.43,1.78,0.65,2.33,0.65h5.4l-2.77,2.77h-1.96
			c-1.03,0-2.02,0.06-2.98,0.18v0.58c0,1.46,0.83,2.57,2.49,3.32c1.29,0.58,2.81,0.88,4.55,0.88h1.27V490.13z"/>
		<path class="st0" d="M421.43,490.13h-1.48c-1.18,0-2.16-0.19-2.92-0.58c-0.76-0.38-1.38-0.95-1.86-1.68
			c-0.48,0.77-1.13,1.34-1.95,1.71s-1.8,0.55-2.92,0.55h-1.45v-2.77h1.45c0.95,0,1.69-0.27,2.22-0.81c0.52-0.54,0.78-1.35,0.78-2.42
			V453.9l2.77-2.77v32.35c0,1.03,0.41,1.93,1.22,2.71c0.82,0.78,1.7,1.17,2.65,1.17h1.48V490.13z"/>
		<path class="st0" d="M430.33,484.13c0,2.03-0.52,3.55-1.57,4.57c-0.98,0.95-2.38,1.43-4.2,1.43h-3.14v-2.77h3.14
			c0.98,0,1.72-0.22,2.19-0.67c0.54-0.51,0.81-1.36,0.81-2.56v-9l2.77-2.77V484.13z M428.37,467.68c0,0.54-0.19,1-0.58,1.38
			c-0.38,0.38-0.85,0.58-1.41,0.58c-0.54,0-1-0.19-1.4-0.57c-0.39-0.38-0.59-0.84-0.59-1.4s0.19-1.02,0.58-1.41
			c0.38-0.38,0.85-0.58,1.41-0.58c0.55,0,1.02,0.19,1.41,0.58C428.18,466.66,428.37,467.13,428.37,467.68z"/>
	</g>
</g>
</svg>
