<?xml version="1.0" encoding="utf-8"?>
<!-- Generator: Adobe Illustrator 26.2.1, SVG Export Plug-In . SVG Version: 6.00 Build 0)  -->
<svg version="1.1" xmlns="http://www.w3.org/2000/svg" xmlns:xlink="http://www.w3.org/1999/xlink" x="0px" y="0px"
	 viewBox="0 0 540.2 566.93" style="enable-background:new 0 0 540.2 566.93;" xml:space="preserve">
<style type="text/css">
	.st0{fill:#D1181F;}
	.st1{opacity:0.24;fill:#D1181F;}
	.st2{opacity:0.35;fill:#010101;}
	.st3{fill:#670000;}
	.st4{fill:#FFFFFF;}
	.st5{fill:url(#SVGID_1_);}
	.st6{opacity:0.15;fill:#FFFFFF;}
	.st7{fill:url(#SVGID_00000058588943159041223430000005261997809070607233_);}
	.st8{fill:none;stroke:#D1181F;stroke-miterlimit:10;}
	.st9{fill:url(#SVGID_00000040548637619212839340000015915444836827905201_);}
	.st10{fill:url(#SVGID_00000036972753771955118160000009061578804945466026_);}
	.st11{fill:none;stroke:#D1181F;stroke-width:3;stroke-miterlimit:10;}
	.st12{fill:url(#SVGID_00000176023252702521444630000016203322434058415774_);}
	.st13{fill:url(#SVGID_00000158742406161989241030000010344104979173576852_);}
	.st14{fill:url(#SVGID_00000009576418176918609400000005305311541067641987_);}
	.st15{fill:#D1181F;stroke:#D1181F;stroke-width:2;stroke-miterlimit:10;}
	.st16{fill:url(#SVGID_00000133499022792232123190000016289173448367658659_);}
	.st17{opacity:0.24;}
	.st18{opacity:0.35;}
	.st19{fill:#010101;}
	.st20{fill:url(#SVGID_00000069383059382863623500000007061784875687729063_);}
	.st21{opacity:0.15;}
	.st22{fill:url(#SVGID_00000156576495782630597430000009446854016771016361_);}
	.st23{fill:url(#SVGID_00000080197130587141965400000005302599478338976179_);}
	.st24{fill:url(#SVGID_00000087410436143863785580000008040454802158725519_);}
</style>
<g id="Layer_1">
</g>
<g id="Layer_2">
	<g>
		<g>
			<g>
				<polygon class="st0" points="109.5,357.64 104,357.64 104,437.55 119.06,437.55 119.06,405.84 150.45,405.84 150.45,391.33 
					119.06,391.33 119.06,372.15 156.49,372.15 156.49,357.64 119.06,357.64 				"/>
				<path class="st0" d="M209.78,360.47c-4.42-2.43-9.52-3.65-15.31-3.65c-5.79,0-10.89,1.22-15.31,3.65
					c-4.42,2.44-7.83,5.88-10.25,10.33c-2.42,4.45-3.63,9.61-3.63,15.47v22.65c0,5.86,1.21,11.02,3.63,15.47
					c2.42,4.45,5.83,7.9,10.25,10.33c4.41,2.44,9.52,3.66,15.31,3.66c5.79,0,10.89-1.22,15.31-3.66c4.41-2.43,7.83-5.88,10.25-10.33
					c2.42-4.45,3.63-9.61,3.63-15.47v-22.65c0-5.86-1.21-11.02-3.63-15.47C217.61,366.35,214.19,362.91,209.78,360.47z
					 M208.05,409.3c0,2.79-0.56,5.24-1.68,7.37c-1.12,2.12-2.7,3.77-4.75,4.92c-2.05,1.15-4.44,1.73-7.15,1.73
					c-2.71,0-5.09-0.58-7.15-1.73c-2.05-1.15-3.64-2.79-4.75-4.92c-1.12-2.12-1.68-4.58-1.68-7.37v-23.41
					c0-2.78,0.56-5.24,1.68-7.36c1.12-2.12,2.7-3.77,4.75-4.92c2.05-1.15,4.43-1.73,7.15-1.73c2.71,0,5.09,0.58,7.15,1.73
					c2.05,1.15,3.63,2.79,4.75,4.92c1.12,2.12,1.68,4.58,1.68,7.36V409.3z"/>
				<path class="st0" d="M280.24,360.47c-4.42-2.43-9.52-3.65-15.31-3.65c-5.79,0-10.89,1.22-15.31,3.65
					c-4.42,2.44-7.83,5.88-10.25,10.33c-2.42,4.45-3.63,9.61-3.63,15.47v22.65c0,5.86,1.21,11.02,3.63,15.47
					c2.42,4.45,5.83,7.9,10.25,10.33c4.41,2.44,9.52,3.66,15.31,3.66c5.79,0,10.89-1.22,15.31-3.66c4.41-2.43,7.83-5.88,10.25-10.33
					c2.42-4.45,3.63-9.61,3.63-15.47v-22.65c0-5.86-1.21-11.02-3.63-15.47C288.07,366.35,284.65,362.91,280.24,360.47z
					 M278.51,409.3c0,2.79-0.56,5.24-1.68,7.37c-1.12,2.12-2.7,3.77-4.75,4.92c-2.05,1.15-4.44,1.73-7.15,1.73
					c-2.71,0-5.09-0.58-7.15-1.73c-2.05-1.15-3.64-2.79-4.75-4.92c-1.12-2.12-1.68-4.58-1.68-7.37v-23.41
					c0-2.78,0.56-5.24,1.68-7.36c1.12-2.12,2.7-3.77,4.75-4.92c2.05-1.15,4.43-1.73,7.15-1.73c2.71,0,5.09,0.58,7.15,1.73
					c2.05,1.15,3.63,2.79,4.75,4.92c1.12,2.12,1.68,4.58,1.68,7.36V409.3z"/>
				<path class="st0" d="M352.46,360.99c-4.71-2.23-10.4-3.35-17.06-3.35h-11.38h-7.47h-7.59v79.91h7.59h7.47h11.32
					c6.85,0,12.64-1.19,17.37-3.57c4.73-2.38,8.27-5.72,10.64-10c2.36-4.29,3.55-9.31,3.55-15.06v-22.65
					c0-6.05-1.23-11.21-3.68-15.5C360.75,366.49,357.16,363.23,352.46,360.99z M351.27,409.36c0,4.36-1.36,7.73-4.07,10.11
					c-2.71,2.38-6.54,3.57-11.49,3.57h-11.71v-50.89h11.71c4.95,0,8.78,1.19,11.49,3.57c2.71,2.38,4.07,5.75,4.07,10.11V409.36z"/>
				<path class="st0" d="M432.78,401.2c-2.27-3.13-5.1-5.4-8.49-6.81c-3.39-1.41-7.61-2.61-12.67-3.6
					c-0.22-0.03-0.43-0.08-0.63-0.14c-0.2-0.06-0.41-0.1-0.63-0.14c-0.15-0.04-0.29-0.06-0.44-0.08c-0.15-0.02-0.29-0.05-0.44-0.08
					c-3.52-0.7-6.25-1.36-8.19-1.98c-1.94-0.62-3.57-1.6-4.89-2.94c-1.32-1.34-1.98-3.16-1.98-5.47v-0.06c0-2.75,1.26-4.88,3.79-6.4
					c2.53-1.52,6.1-2.28,10.72-2.28c3.08,0,6.29,0.59,9.65,1.76c3.35,1.17,6.57,2.82,9.64,4.94l6.38-12.75
					c-2.57-1.76-5.28-3.26-8.13-4.51c-2.86-1.24-5.78-2.2-8.77-2.86c-2.99-0.66-5.91-0.99-8.77-0.99c-6.23,0-11.54,0.96-15.94,2.88
					s-7.75,4.72-10.06,8.38s-3.46,8.08-3.46,13.24v0.06c0,5.83,1.23,10.33,3.68,13.49c2.46,3.17,5.44,5.39,8.96,6.65
					c3.52,1.26,7.95,2.32,13.3,3.16l1.21,0.17c0.11,0.04,0.21,0.06,0.3,0.06c0.09,0,0.19,0.02,0.3,0.06
					c3.04,0.48,5.53,1.01,7.47,1.59c1.94,0.59,3.52,1.5,4.73,2.75c1.21,1.25,1.81,2.93,1.81,5.06v0.06c0,3.04-1.36,5.39-4.07,7.06
					c-2.71,1.67-6.52,2.5-11.43,2.5c-4.25,0-8.39-0.69-12.42-2.06c-4.03-1.37-7.58-3.32-10.66-5.85l-6.98,12.42
					c2.53,2.09,5.39,3.87,8.6,5.36c3.21,1.48,6.63,2.61,10.28,3.38c3.65,0.77,7.37,1.15,11.19,1.15c6.41,0,11.9-0.95,16.46-2.86
					c4.56-1.9,8.03-4.67,10.42-8.3c2.38-3.63,3.57-7.99,3.57-13.08v-0.11C436.19,408.61,435.05,404.33,432.78,401.2z"/>
			</g>
			<g>
				<g>
					<g>
						<path class="st0" d="M357.22,321.03h-0.82c-7.47,0-13.4-5.64-12.99-12.35l0.54-9l0.14-2.36l0.26-4.34l0-0.08l0.14-2.3
							l0.05-0.76l0.16-2.64l0.06-0.92l0.13-2.14l0.01-0.26l0.14-2.38l0.11-1.92l0.07-1.14l0.08-1.28l4.91-82.31l0.08-1.33
							C321.17,79.18,352.65,55.6,363.34,51.01c0.27-0.12,0.55-0.18,0.82-0.19c1.27-0.05,2.42,0.97,2.38,2.36l-3.78,140.36
							l5.41,83.61l0.09,1.35l0.07,1.1l0.13,1.96l0.15,2.3l0.02,0.34l0.14,2.1l0.06,0.97l0.17,2.65l0.04,0.66l0.16,2.4l0,0.01
							l0.28,4.3l0.15,2.4l0.58,8.93C370.65,315.35,364.71,321.03,357.22,321.03z"/>
					</g>
					<g>
						<path class="st0" d="M364.16,50.82l-3.51,135.13c0,0-2.89,4.17-10.37,7.59l0,0C321.17,79.18,352.65,55.6,363.34,51.01
							C363.61,50.89,363.89,50.83,364.16,50.82z"/>
					</g>
					<g>
						<polygon class="st0" points="351.22,195.08 350.68,194.66 350.36,194.73 350.36,194.41 349.63,193.84 350.47,191.83 
							348.78,190.47 349.64,188.47 347.96,187.1 348.83,185.11 347.15,183.72 348.04,181.74 346.37,180.34 347.27,178.36 
							345.62,176.95 346.53,174.98 344.88,173.56 345.81,171.6 344.18,170.17 345.12,168.21 343.5,166.77 344.45,164.82 
							342.85,163.36 343.82,161.42 342.22,159.95 343.21,158.02 341.63,156.53 342.64,154.61 341.07,153.11 342.1,151.2 
							340.54,149.68 341.59,147.78 340.05,146.25 341.12,144.36 339.6,142.82 340.68,140.94 339.18,139.37 340.29,137.51 
							338.8,135.92 339.94,134.07 338.47,132.47 339.63,130.62 338.19,128.99 339.37,127.17 337.95,125.52 339.16,123.71 
							337.76,122.04 339,120.25 337.63,118.56 338.9,116.79 337.56,115.08 338.86,113.33 337.55,111.59 338.89,109.88 
							337.62,108.11 338.98,106.43 337.75,104.64 339.15,102.98 337.96,101.17 339.41,99.54 338.26,97.7 339.75,96.11 338.65,94.23 
							340.18,92.69 339.14,90.78 340.72,89.28 339.74,87.34 341.37,85.89 340.46,83.92 342.14,82.53 341.3,80.52 343.05,79.21 
							342.3,77.16 344.1,75.93 343.44,73.85 345.31,72.7 344.77,70.59 346.69,69.55 346.28,67.4 348.27,66.49 347.99,64.31 
							350.04,63.54 349.93,61.35 352.04,60.74 352.11,58.55 354.27,58.12 354.54,55.94 356.73,55.73 357.23,53.59 359.43,53.62 
							360.18,51.55 362.36,51.85 363.2,50.21 363.97,50.6 362.85,52.79 360.75,52.5 360.04,54.49 357.91,54.47 357.43,56.54 
							355.32,56.74 355.05,58.85 352.95,59.27 352.88,61.4 350.83,62 350.94,64.13 348.94,64.88 349.2,67.01 347.26,67.9 
							347.66,70.01 345.77,71.03 346.3,73.11 344.47,74.23 345.11,76.28 343.34,77.5 344.08,79.51 342.36,80.81 343.19,82.79 
							341.52,84.16 342.42,86.12 340.81,87.54 341.78,89.47 340.22,90.95 341.25,92.84 339.73,94.37 340.82,96.23 339.34,97.81 
							340.48,99.64 339.05,101.25 340.23,103.05 338.84,104.69 340.06,106.47 338.7,108.15 339.97,109.9 338.64,111.6 
							339.94,113.33 338.65,115.06 339.98,116.77 338.72,118.53 340.08,120.21 338.85,121.99 340.24,123.65 339.03,125.45 
							340.45,127.09 339.27,128.91 340.71,130.53 339.56,132.37 341.02,133.97 339.89,135.81 341.37,137.39 340.26,139.25 
							341.76,140.81 340.68,142.68 342.19,144.22 341.13,146.1 342.66,147.63 341.62,149.52 343.17,151.03 342.14,152.94 
							343.71,154.43 342.7,156.35 344.28,157.83 343.29,159.76 344.89,161.22 343.91,163.16 345.52,164.61 344.56,166.56 
							346.18,168 345.24,169.95 346.87,171.38 345.95,173.34 347.59,174.75 346.68,176.72 348.33,178.12 347.43,180.1 
							349.09,181.49 348.21,183.47 349.88,184.85 349.01,186.84 350.69,188.21 349.84,190.21 351.52,191.57 350.97,192.88 
							351.22,192.88 						"/>
					</g>
				</g>
				<g>
					<path class="st0" d="M419.07,144.72l8.56,132.46l0.09,1.45l0.06,0.94l0.14,2.12l0.14,2.2l0.03,0.45l0.12,1.92l0.07,1.14
						l0.17,2.65l0.04,0.56l0.15,2.34l0.01,0.17l0.27,4.21l0.15,2.31l0.58,8.9c0.45,6.77-5.53,12.48-13.06,12.48h-0.82
						c-7.51,0-13.48-5.68-13.06-12.42l0.54-8.98l0.13-2.25l0.26-4.45l0.01-0.1l0.13-2.17l0.05-0.88l0.16-2.64l0.05-0.9l0.13-2.16
						l0.01-0.14l0.15-2.5l0.11-1.9l0.07-1.16l0.07-1.17l7.9-132.49c0.15-4.94-2.01-9.7-5.89-12.79c-3.55-2.83-6.53-7.24-8.57-12.67
						c-1.74-4.62-2.6-9.52-2.6-14.45l3.99-53.32c0.03-0.39,0.36-0.7,0.75-0.7h0.1c0.42,0,0.76,0.34,0.76,0.76v53.95
						c0,0.84,0.34,1.6,0.89,2.15c0.55,0.55,1.31,0.89,2.15,0.89c1.68,0,3.05-1.36,3.05-3.05l2.92-53.99
						c0.02-0.37,0.31-0.67,0.67-0.71c0.03,0,0.05,0,0.08,0h0.23c0.41,0,0.75,0.33,0.76,0.74l0.94,53.96c0,1.7,1.39,3.07,3.1,3.05
						c1.67-0.03,2.99-1.43,2.99-3.1L420,51.54c0.01-0.41,0.34-0.74,0.76-0.74h0.46c0.4,0,0.74,0.32,0.76,0.72l2.46,53.98
						c0,1.66,1.33,3.01,2.99,3.05c1.71,0.03,3.11-1.4,3.11-3.11V51.56c0-0.42,0.34-0.76,0.76-0.76c0.4,0,0.72,0.3,0.75,0.7
						l4.1,53.32c0,4.93-0.86,9.83-2.6,14.45c-2.04,5.43-5.02,9.84-8.57,12.67C421.09,135.03,418.92,139.78,419.07,144.72z"/>
					<path class="st0" d="M424.97,131.94c3.55-2.83,6.53-7.24,8.57-12.67c1.74-4.62,2.59-9.52,2.59-14.45l-4.1-53.32
						c-0.03-0.39-0.36-0.7-0.75-0.7c-0.42,0-0.76,0.34-0.76,0.76v53.89c0,1.71-1.4,3.14-3.11,3.11c-1.65-0.03-2.99-1.38-2.99-3.05
						l-2.46-53.98c-0.02-0.4-0.35-0.72-0.76-0.72h-0.46c-0.41,0-0.75,0.33-0.76,0.74l-1.17,53.92c0,1.67-1.32,3.07-2.99,3.1
						c-1.71,0.03-3.1-1.35-3.1-3.05l-0.94-53.96c-0.01-0.41-0.34-0.74-0.76-0.74h-0.23c-0.03,0-0.05,0-0.08,0
						c-0.36,0.04-0.65,0.34-0.67,0.71l-2.92,53.99c0,1.68-1.36,3.05-3.05,3.05c-0.84,0-1.6-0.34-2.15-0.89
						c-0.55-0.55-0.89-1.31-0.89-2.15V51.56c0-0.42-0.34-0.76-0.76-0.76h-0.1c-0.4,0-0.73,0.31-0.75,0.7l-3.99,53.32
						c0,4.93,0.86,9.83,2.59,14.45c2.04,5.43,5.02,9.84,8.57,12.67c2.44,1.94,4.19,4.53,5.13,7.42c1.09-0.51,2.5-0.82,4.06-0.82
						c1.55,0,2.97,0.31,4.06,0.82C420.77,136.47,422.53,133.88,424.97,131.94z"/>
					<path class="st1" d="M430.53,85.27v20.18c0,1.71-1.4,3.14-3.11,3.11c-1.65-0.03-2.99-1.38-2.99-3.05l-0.74-16.29
						c-1.57,0.98-3.09,1.98-4.57,3l-0.29,13.24c0,1.67-1.32,3.07-2.99,3.1c-1.71,0.03-3.1-1.35-3.1-3.05l-0.15-8.43
						c-1.82,1.46-3.57,2.94-5.24,4.44l-0.22,4c0,1.68-1.36,3.05-3.05,3.05c-0.84,0-1.6-0.34-2.15-0.89
						c-0.17-0.17-0.31-0.35-0.43-0.55c-1.87,1.92-3.64,3.84-5.29,5.76c0.43,2.18,1.03,4.32,1.82,6.4c2.04,5.43,5.02,9.84,8.57,12.67
						c2.44,1.94,4.19,4.53,5.13,7.42c1.09-0.51,2.5-0.82,4.06-0.82c1.55,0,2.97,0.31,4.06,0.82c0.94-2.89,2.69-5.48,5.13-7.42
						c3.55-2.83,6.53-7.24,8.57-12.67c1.74-4.62,2.59-9.52,2.59-14.45l-1.66-21.56C433.13,83.91,431.82,84.58,430.53,85.27z"/>
				</g>
				<g>
					<path class="st0" d="M149.76,315.19c42.05-3,81.22-31.69,95.35-71.13c4.49-12.19,6.72-25.48,6.32-38.35
						c-0.29-8.05-1.58-20.53-2.16-28.66c0,0-2.43-29.85-2.43-29.85h44.41l-2.43,29.85c-0.84,9.21-1.56,22.01-2.79,31.03
						c-1.77,12.72-5.34,25-10.51,36.58c-17.14,38.54-53.69,67.65-94.94,74.58c-10.28,1.74-20.65,2.19-30.82,1.42V315.19
						L149.76,315.19z"/>
					<g>
						<path class="st2" d="M199.26,53.47c-21.98,0-42.2,7.54-58.21,20.18c-21.81,17.22-35.81,43.9-35.81,73.84
							c0,51.93,42.1,94.02,94.03,94.02c17.87,0,34.58-4.99,48.81-13.64c27.11-16.5,45.22-46.32,45.22-80.38
							C293.29,95.57,251.19,53.47,199.26,53.47z"/>
						<g>
							<g>
								<path class="st3" d="M292.11,144.86c0,34.06-18.11,63.88-45.22,80.38c-14.23,8.66-30.93,13.64-48.81,13.64
									c-51.93,0-94.03-42.1-94.03-94.02c0-29.95,14-56.62,35.81-73.84c16.01-12.64,36.23-20.18,58.21-20.18
									C250.01,50.84,292.11,92.94,292.11,144.86z"/>
								<circle class="st0" cx="198.09" cy="144.86" r="92.9"/>
								<circle class="st4" cx="198.09" cy="146.22" r="61.65"/>
								<linearGradient id="SVGID_1_" gradientUnits="userSpaceOnUse" x1="198.0863" y1="83.6065" x2="198.0863" y2="205.9048">
									<stop  offset="0" style="stop-color:#D1181F"/>
									<stop  offset="0.9946" style="stop-color:#F3F3F3"/>
								</linearGradient>
								<circle class="st5" cx="198.09" cy="144.92" r="61.65"/>
								<circle class="st0" cx="198.09" cy="144.92" r="49.57"/>
							</g>
							<path class="st6" d="M292.11,144.86c0,34.06-18.11,63.88-45.22,80.38c-0.04-0.41-0.08-0.83-0.12-1.24
								c-1.2-11.57-3.48-22.48-6.59-32.74c-0.1-0.34-0.21-0.68-0.31-1.01c-1.35-4.35-2.85-8.58-4.48-12.69
								c-13.48-34-35.91-59.95-56.68-78.29c-3.1-2.74-6.17-5.31-9.16-7.71c-0.33-0.26-0.65-0.52-0.98-0.78
								c-10.79-8.57-20.58-14.93-27.66-19.15c-0.35-0.21-0.7-0.41-1.03-0.61c16.01-12.64,36.23-20.18,58.21-20.18
								C250.01,50.84,292.11,92.94,292.11,144.86z"/>
						</g>
					</g>
				</g>
			</g>
		</g>
		<g>
			<path class="st0" d="M130.74,492.63c0,2.08-0.47,4.04-1.41,5.9c-1.07,2.08-2.58,3.72-4.53,4.91c-2.22,1.36-4.89,2.04-8.01,2.04
				c-4.11,0-7.36-1.27-9.76-3.81c-2.27-2.41-3.4-5.52-3.4-9.33c0-3.74,1.35-6.8,4.05-9.18c2.4-2.11,5.12-3.16,8.17-3.16h1.56
				l-0.31,0.67c-3.04,0-5.63,1.04-7.77,3.12c-2.22,2.14-3.33,4.82-3.33,8.03c0,2.97,1.05,5.51,3.16,7.62
				c2.11,2.11,4.65,3.16,7.62,3.16c3.66,0,6.46-1.06,8.41-3.19c1.77-1.93,2.66-4.52,2.66-7.74v-13.76l2.88-2.88V492.63z
				 M120.08,488.58c0,0.56-0.2,1.04-0.6,1.44c-0.4,0.4-0.89,0.6-1.46,0.6c-0.56,0-1.04-0.2-1.45-0.59s-0.61-0.88-0.61-1.45
				c0-0.58,0.2-1.06,0.6-1.46c0.4-0.4,0.89-0.6,1.46-0.6c0.58,0,1.06,0.2,1.46,0.6C119.88,487.52,120.08,488,120.08,488.58z"/>
			<path class="st0" d="M142.64,493.49h-7.1v-37.64l2.88-2.88v37.64h4.22V493.49z"/>
			<path class="st0" d="M169.68,493.49h-1.22c-1.63,0-3.12-0.42-4.48-1.25c-0.96-0.59-2.02-1.53-3.19-2.83
				c-0.88-0.97-1.76-1.96-2.64-2.95c-1.44,1.33-2.53,2.27-3.26,2.83c-1.6,1.23-3.17,2.19-4.72,2.88c-2.01,0.88-4.02,1.32-6.02,1.32
				h-1.51v-2.88h1.51c1.57,0,3.18-0.35,4.84-1.05c1.41-0.59,2.77-1.39,4.1-2.4c1.01-0.77,1.97-1.64,2.88-2.61
				c-1.42-1.17-2.43-1.97-3.02-2.42c-1.28-0.94-2.54-1.73-3.79-2.37c-1.53-0.78-3.3-1.47-5.3-2.06v-2.25
				c0.99-0.66,2.33-1.16,4.03-1.51c1.39-0.29,3.01-0.48,4.87-0.58c1.85-0.1,3.98-0.14,6.38-0.14h7.17v2.88
				c0,0.69-0.44,1.62-1.32,2.8c-0.16,0.21-1.77,2.04-4.84,5.49c1.25,1.31,2.49,2.61,3.74,3.91c1.68,1.55,3.2,2.33,4.58,2.33h1.22
				V493.49z M163.18,476.35v-0.26h-4.05c-2.73,0-4.88,0.03-6.45,0.08c-1.57,0.06-2.84,0.2-3.81,0.42v0.1
				c0.83,0.21,1.77,0.61,2.8,1.2c0.82,0.46,1.85,1.16,3.12,2.09c0.99,0.72,2.06,1.56,3.21,2.52c0.64-0.66,1.29-1.31,1.94-1.97
				c0.94-0.97,1.67-1.77,2.18-2.4C162.83,477.26,163.18,476.67,163.18,476.35z"/>
			<path class="st0" d="M199.4,482.58l-2.88,2.88h-2.04c-3.44,0-6.43,0.69-8.99,2.06c-2,1.29-3.99,2.59-5.97,3.88
				c-2.41,1.39-5.11,2.09-8.08,2.09h-1.77v-2.88h1.77c2.06,0,4.08-0.46,6.04-1.39c0.75-0.35,2.44-1.36,5.06-3.02
				c2.08-1.31,3.88-2.22,5.42-2.73l-7.82-5.06c-0.51-0.4-1.14-0.74-1.89-1.02c-0.75-0.28-1.4-0.42-1.94-0.42h-0.48
				c-0.8,0-1.57,0.34-2.33,1.03c-0.75,0.69-1.13,1.49-1.13,2.4v1.41l-0.43,0.17c-0.18-0.3-0.3-0.55-0.38-0.74
				c-0.26-0.61-0.38-1.19-0.38-1.75c0-1.57,0.39-2.84,1.17-3.81c0.85-1.06,2.01-1.58,3.48-1.58h0.48c1.77,0,3.67,0.66,5.68,1.97
				l7.14,4.67c0.62,0.4,1.37,0.79,2.23,1.17c1.04,0.45,1.85,0.67,2.42,0.67H199.4z M186.39,498.43c0,0.56-0.2,1.04-0.6,1.44
				c-0.4,0.4-0.89,0.6-1.46,0.6c-0.56,0-1.04-0.2-1.45-0.59s-0.61-0.88-0.61-1.45c0-0.58,0.2-1.06,0.6-1.46
				c0.4-0.4,0.89-0.6,1.46-0.6c0.58,0,1.06,0.2,1.46,0.6C186.19,497.37,186.39,497.86,186.39,498.43z"/>
			<path class="st0" d="M258.69,493.49h-1.05c-1.23,0-2.21-0.19-2.95-0.58c-0.74-0.38-1.33-0.97-1.77-1.77
				c-0.24,0.72-0.74,1.29-1.51,1.71c-0.77,0.42-1.71,0.64-2.83,0.64H229.2c-2.81,0-5.04-0.52-6.69-1.56
				c-1.81-1.13-2.71-2.77-2.71-4.91c0-1.44,0.55-2.92,1.65-4.46c0.54-0.75,1.53-1.85,2.97-3.28l1.37-1.37l0.46,0.62l-1.03,1.37
				c-0.75,0.99-1.29,1.74-1.63,2.25c-1.04,1.57-1.56,2.89-1.56,3.98c0,1.53,0.84,2.71,2.52,3.52c1.33,0.64,2.88,0.96,4.65,0.96
				h19.37c0.96,0,1.64-0.26,2.04-0.78c0.4-0.52,0.6-1.38,0.6-2.58v-9.35l2.88-2.88v11.55c0,1.09,0.35,2.03,1.05,2.83
				c0.7,0.8,1.53,1.2,2.49,1.2h1.05V493.49z M238.77,475.87c0,0.56-0.2,1.04-0.6,1.44c-0.4,0.4-0.89,0.6-1.46,0.6
				c-0.56,0-1.04-0.2-1.45-0.59s-0.61-0.88-0.61-1.45c0-0.58,0.2-1.06,0.6-1.46c0.4-0.4,0.89-0.6,1.46-0.6c0.58,0,1.06,0.2,1.46,0.6
				C238.57,474.81,238.77,475.3,238.77,475.87z M243.82,475.87c0,0.56-0.2,1.04-0.6,1.44c-0.4,0.4-0.89,0.6-1.46,0.6
				c-0.56,0-1.04-0.2-1.45-0.59c-0.41-0.39-0.61-0.88-0.61-1.45c0-0.58,0.2-1.06,0.6-1.46c0.4-0.4,0.89-0.6,1.46-0.6
				c0.58,0,1.06,0.2,1.46,0.6C243.62,474.81,243.82,475.3,243.82,475.87z"/>
			<path class="st0" d="M267.94,487.26c0,2.11-0.54,3.69-1.63,4.75c-1.02,0.99-2.48,1.49-4.36,1.49h-3.26v-2.88h3.26
				c1.02,0,1.78-0.23,2.28-0.69c0.56-0.53,0.84-1.41,0.84-2.66v-9.35l2.88-2.88V487.26z M265.9,470.17c0,0.56-0.2,1.04-0.6,1.44
				c-0.4,0.4-0.89,0.6-1.46,0.6c-0.56,0-1.04-0.2-1.45-0.59c-0.41-0.39-0.61-0.88-0.61-1.45c0-0.58,0.2-1.06,0.6-1.46
				c0.4-0.4,0.89-0.6,1.46-0.6c0.58,0,1.06,0.2,1.46,0.6C265.7,469.1,265.9,469.59,265.9,470.17z"/>
			<path class="st0" d="M283.47,466.24l-1.27,2.04c-0.64,0.08-1.31,0.22-2.01,0.43c-0.7,0.21-1.42,0.42-2.16,0.62
				c-0.74,0.21-1.43,0.37-2.09,0.49c-0.66,0.12-1.37,0.18-2.16,0.18h-1.05l1.32-2.01h0.53c0.38,0,0.7-0.1,0.94-0.29
				c-0.37-0.35-0.66-0.7-0.86-1.03c-0.3-0.5-0.46-0.99-0.46-1.49c0-0.96,0.34-1.69,1.01-2.21c0.67-0.51,1.52-0.77,2.54-0.77
				c0.72,0,1.42,0.26,2.11,0.77c0.22,0.16,0.5,0.42,0.82,0.77l-0.41,0.36c-0.32-0.13-0.57-0.22-0.74-0.29
				c-0.58-0.21-0.98-0.31-1.22-0.31c-0.51,0-0.94,0.14-1.29,0.43c-0.35,0.29-0.53,0.7-0.53,1.25c0,0.46,0.28,0.89,0.83,1.28
				c0.55,0.39,1.12,0.59,1.71,0.59c0.85-0.21,1.63-0.4,2.34-0.56C282.06,466.32,282.77,466.24,283.47,466.24z M279.02,493.49
				c0,3.61-0.32,6.7-0.96,9.28c-0.51,2.06-1.22,3.79-2.13,5.18c-0.64,0.96-1.36,1.73-2.16,2.33h-0.34c0.08,0,0.31-0.41,0.7-1.22
				c0.56-1.18,1-2.55,1.32-4.1c0.46-2.21,0.7-4.71,0.7-7.5v-26.3l2.88-0.74V493.49z M279.02,461.18c-0.3-0.1-0.52-0.16-0.64-0.18
				c-0.12-0.02-0.36-0.04-0.73-0.04c-0.48,0-0.98,0.1-1.51,0.31v-5.15l2.88-2.88V461.18z"/>
			<path class="st0" d="M304.33,490.62c0,4.57-0.32,8.29-0.96,11.15c-0.51,2.27-1.26,4.13-2.25,5.59c-0.42,0.61-1.29,1.58-2.64,2.92
				h-0.34c0.05,0,0.33-0.51,0.84-1.53c0.67-1.34,1.21-2.69,1.61-4.05c0.58-1.97,0.86-3.88,0.86-5.73v-7.65
				c-0.62,0.67-1.39,1.2-2.3,1.59c-0.91,0.39-1.86,0.59-2.85,0.59c-2.49,0-4.48-0.9-5.95-2.69c-1.39-1.69-2.09-3.88-2.09-6.54
				c0-2.6,0.75-4.79,2.25-6.57c1.5-1.77,3.43-2.66,5.78-2.66c2.35,0,4.27,0.89,5.78,2.66c1.5,1.77,2.25,3.96,2.25,6.57V490.62z
				 M301.45,484.26c0-1.79-0.46-3.28-1.37-4.46c-0.98-1.26-2.24-1.89-3.79-1.89c-1.53,0-2.78,0.62-3.73,1.85
				c-0.95,1.23-1.43,2.73-1.43,4.51c0,1.79,0.46,3.28,1.37,4.46c0.97,1.26,2.24,1.89,3.79,1.89c1.53,0,2.79-0.63,3.76-1.89
				C300.99,487.52,301.45,486.04,301.45,484.26z"/>
			<path class="st0" d="M363.62,493.49h-1.05c-1.23,0-2.21-0.19-2.95-0.58c-0.74-0.38-1.33-0.97-1.77-1.77
				c-0.24,0.72-0.74,1.29-1.51,1.71c-0.77,0.42-1.71,0.64-2.83,0.64h-19.37c-2.81,0-5.04-0.52-6.69-1.56
				c-1.81-1.13-2.71-2.77-2.71-4.91c0-1.44,0.55-2.92,1.65-4.46c0.54-0.75,1.53-1.85,2.97-3.28l1.37-1.37l0.46,0.62l-1.03,1.37
				c-0.75,0.99-1.29,1.74-1.63,2.25c-1.04,1.57-1.56,2.89-1.56,3.98c0,1.53,0.84,2.71,2.52,3.52c1.33,0.64,2.88,0.96,4.65,0.96
				h19.37c0.96,0,1.64-0.26,2.04-0.78c0.4-0.52,0.6-1.38,0.6-2.58v-31.4l2.88-2.88v33.61c0,1.09,0.35,2.03,1.05,2.83
				c0.7,0.8,1.53,1.2,2.49,1.2h1.05V493.49z M346.07,475.3l-0.7,2.06c-0.11,0-0.26,0-0.43,0.01c-0.18,0.01-0.38,0.08-0.62,0.2
				l-1.8,0.91c-0.13,0.08-0.19,0.19-0.19,0.34c0,0.14,0.06,0.25,0.19,0.31l1.77,0.89c0.48,0.24,0.84,0.53,1.08,0.88
				c0.24,0.34,0.36,0.69,0.36,1.04c0,0.51-0.09,0.91-0.26,1.2c-0.24,0.38-0.67,0.67-1.29,0.86l-0.79,0.24
				c-0.46,0.13-0.87,0.19-1.22,0.19c-0.62,0-1.23-0.15-1.82-0.46c-0.35-0.21-0.7-0.42-1.03-0.62v-0.31c0.06,0,0.19,0.01,0.37,0.02
				c0.18,0.02,0.37,0.02,0.56,0.02c0.3,0,0.61-0.02,0.92-0.06s0.6-0.11,0.88-0.2l1.34-0.46c0.18-0.1,0.26-0.22,0.26-0.38
				s-0.08-0.29-0.24-0.38l-1.87-0.93c-0.42-0.21-0.73-0.46-0.95-0.77c-0.22-0.3-0.32-0.62-0.32-0.96c0-0.45,0.11-0.82,0.32-1.13
				c0.22-0.3,0.55-0.6,0.99-0.89l1.77-0.89c0.78-0.38,1.47-0.62,2.06-0.72C345.61,475.31,345.83,475.3,346.07,475.3z"/>
			<path class="st0" d="M383.9,493.49h-20.28v-2.88h3.16c-1.37-1.73-2.06-3.84-2.06-6.35c0-2.6,0.75-4.79,2.25-6.57
				c1.5-1.77,3.43-2.66,5.78-2.66s4.28,0.88,5.78,2.65c1.5,1.77,2.25,3.96,2.25,6.58c0,2.53-0.7,4.64-2.09,6.35h5.2V493.49z
				 M369.75,470.17c0,0.56-0.2,1.04-0.6,1.44c-0.4,0.4-0.89,0.6-1.46,0.6c-0.56,0-1.04-0.2-1.45-0.59s-0.61-0.88-0.61-1.45
				c0-0.58,0.2-1.06,0.6-1.46c0.4-0.4,0.89-0.6,1.46-0.6c0.58,0,1.06,0.2,1.46,0.6C369.55,469.1,369.75,469.59,369.75,470.17z
				 M377.9,484.26c0-1.79-0.46-3.28-1.37-4.46c-0.98-1.26-2.24-1.89-3.79-1.89c-1.53,0-2.78,0.62-3.73,1.85
				c-0.95,1.23-1.43,2.73-1.43,4.51c0,1.79,0.46,3.28,1.37,4.46c0.97,1.26,2.24,1.89,3.79,1.89c1.53,0,2.79-0.63,3.76-1.89
				C377.44,487.52,377.9,486.04,377.9,484.26z M374.81,470.17c0,0.56-0.2,1.04-0.6,1.44c-0.4,0.4-0.89,0.6-1.46,0.6
				c-0.56,0-1.04-0.2-1.45-0.59c-0.41-0.39-0.61-0.88-0.61-1.45c0-0.58,0.2-1.06,0.6-1.46c0.4-0.4,0.89-0.6,1.46-0.6
				c0.58,0,1.06,0.2,1.46,0.6C374.61,469.1,374.81,469.59,374.81,470.17z"/>
			<path class="st0" d="M414.25,493.49h-1.32c-2.77,0-5.07-0.49-6.9-1.46c-2.14-1.13-3.21-2.76-3.21-4.89v-0.89
				c-1.71,0.51-3.54,1.43-5.49,2.76c-2.48,1.68-4.08,2.69-4.82,3.04c-2.03,0.96-4.31,1.44-6.83,1.44h-1.77v-2.88h1.77
				c2.06,0,4.08-0.46,6.04-1.39c0.75-0.35,2.44-1.36,5.06-3.02c2.08-1.31,3.88-2.22,5.42-2.73l-7.82-5.06
				c-0.51-0.4-1.14-0.74-1.89-1.02c-0.75-0.28-1.4-0.42-1.94-0.42h-0.48c-0.8,0-1.57,0.34-2.33,1.03c-0.75,0.69-1.13,1.49-1.13,2.4
				v1.41l-0.43,0.17c-0.18-0.3-0.3-0.55-0.38-0.74c-0.26-0.61-0.38-1.19-0.38-1.75c0-1.57,0.39-2.84,1.17-3.81
				c0.85-1.06,2.01-1.58,3.48-1.58h0.48c1.77,0,3.67,0.66,5.68,1.97l7.14,4.67c0.62,0.4,1.37,0.79,2.23,1.17
				c1.04,0.45,1.85,0.67,2.42,0.67h5.61l-2.88,2.88h-2.04c-1.07,0-2.1,0.06-3.09,0.19v0.6c0,1.52,0.86,2.67,2.59,3.45
				c1.34,0.61,2.92,0.91,4.72,0.91h1.32V493.49z"/>
			<path class="st0" d="M427.31,493.49h-1.53c-1.23,0-2.24-0.2-3.03-0.6s-1.43-0.98-1.93-1.75c-0.5,0.8-1.17,1.39-2.03,1.77
				c-0.85,0.38-1.87,0.58-3.03,0.58h-1.51v-2.88h1.51c0.99,0,1.76-0.28,2.3-0.84c0.54-0.56,0.81-1.4,0.81-2.52v-31.4l2.88-2.88
				v33.61c0,1.07,0.42,2.01,1.27,2.82c0.85,0.81,1.77,1.21,2.76,1.21h1.53V493.49z"/>
			<path class="st0" d="M436.56,487.26c0,2.11-0.54,3.69-1.63,4.75c-1.02,0.99-2.48,1.49-4.36,1.49h-3.26v-2.88h3.26
				c1.02,0,1.78-0.23,2.28-0.69c0.56-0.53,0.84-1.41,0.84-2.66v-9.35l2.88-2.88V487.26z M434.53,470.17c0,0.56-0.2,1.04-0.6,1.44
				c-0.4,0.4-0.89,0.6-1.46,0.6c-0.56,0-1.04-0.2-1.45-0.59c-0.41-0.39-0.61-0.88-0.61-1.45c0-0.58,0.2-1.06,0.6-1.46
				c0.4-0.4,0.89-0.6,1.46-0.6c0.58,0,1.06,0.2,1.46,0.6C434.33,469.1,434.53,469.59,434.53,470.17z"/>
		</g>
	</g>
</g>
</svg>
