<?xml version="1.0" encoding="utf-8"?>
<!-- Generator: Adobe Illustrator 26.2.1, SVG Export Plug-In . SVG Version: 6.00 Build 0)  -->
<svg version="1.1" xmlns="http://www.w3.org/2000/svg" xmlns:xlink="http://www.w3.org/1999/xlink" x="0px" y="0px"
	 viewBox="0 0 540.2 566.93" style="enable-background:new 0 0 540.2 566.93;" xml:space="preserve">
<style type="text/css">
	.st0{fill:#D1181F;}
	.st1{opacity:0.24;fill:#D1181F;}
	.st2{opacity:0.35;fill:#010101;}
	.st3{fill:#670000;}
	.st4{fill:#FFFFFF;}
	.st5{fill:url(#SVGID_1_);}
	.st6{opacity:0.15;fill:#FFFFFF;}
	.st7{fill:url(#SVGID_00000076574349089284554380000007054658239027673522_);}
	.st8{fill:none;stroke:#D1181F;stroke-miterlimit:10;}
	.st9{fill:url(#SVGID_00000114761166697374174540000002866552453263175833_);}
	.st10{fill:url(#SVGID_00000069397831461470227920000016387743946016096657_);}
	.st11{fill:none;stroke:#D1181F;stroke-width:3;stroke-miterlimit:10;}
	.st12{fill:url(#SVGID_00000098186595975261230100000010168613645837390482_);}
	.st13{fill:url(#SVGID_00000180330522184250352400000001836808011919800483_);}
	.st14{fill:url(#SVGID_00000059272330485650283130000012917204069988424072_);}
	.st15{fill:#D1181F;stroke:#D1181F;stroke-width:2;stroke-miterlimit:10;}
	.st16{fill:url(#SVGID_00000085930171827405517390000000430262464270361777_);}
	.st17{opacity:0.24;}
	.st18{opacity:0.35;}
	.st19{fill:#010101;}
	.st20{fill:url(#SVGID_00000060708989689691194600000013980162144296320910_);}
	.st21{opacity:0.15;}
	.st22{fill:url(#SVGID_00000021116708737068534080000014548705146907097233_);}
	.st23{fill:url(#SVGID_00000176751537825034114800000000821120453932234901_);}
	.st24{fill:url(#SVGID_00000151541550540324299800000015396507313860324504_);}
</style>
<g id="Layer_1">
</g>
<g id="Layer_2">
	<g>
		<g>
			<g>
				<g>
					<g>
						<path class="st0" d="M345.58,282h-0.71c-6.47,0-11.61-4.89-11.25-10.7l0.46-7.8l0.12-2.04l0.22-3.76l0-0.07l0.12-1.99
							l0.04-0.66l0.14-2.29l0.05-0.79l0.11-1.85l0.01-0.22l0.12-2.06l0.1-1.66l0.06-0.98l0.07-1.11l4.25-71.31l0.07-1.15
							c-25.22-99.08,2.05-119.5,11.31-123.48c0.23-0.1,0.47-0.15,0.71-0.16c1.1-0.05,2.1,0.84,2.07,2.04l-3.27,121.6l4.68,72.44
							l0.08,1.17l0.06,0.96l0.11,1.69l0.13,1.99l0.02,0.3l0.12,1.82l0.05,0.84l0.15,2.29l0.04,0.57l0.13,2.08l0,0.01l0.24,3.72
							l0.13,2.08l0.5,7.74C357.21,277.09,352.07,282,345.58,282z"/>
					</g>
					<g>
						<path class="st0" d="M351.59,47.91l-3.04,117.07c0,0-2.5,3.61-8.98,6.57l0,0c-25.22-99.08,2.05-119.5,11.31-123.48
							C351.11,47.97,351.35,47.92,351.59,47.91z"/>
					</g>
					<g>
						<polygon class="st0" points="340.38,172.89 339.91,172.52 339.63,172.59 339.63,172.3 339,171.81 339.73,170.07 
							338.27,168.89 339.01,167.16 337.55,165.97 338.31,164.25 336.86,163.05 337.62,161.33 336.18,160.12 336.96,158.4 
							335.52,157.18 336.31,155.48 334.89,154.25 335.69,152.55 334.28,151.3 335.09,149.61 333.69,148.36 334.52,146.67 
							333.12,145.41 333.97,143.73 332.58,142.45 333.44,140.78 332.07,139.49 332.95,137.83 331.59,136.53 332.48,134.87 
							331.13,133.56 332.04,131.91 330.7,130.59 331.63,128.95 330.31,127.61 331.25,125.98 329.95,124.63 330.91,123.01 
							329.62,121.64 330.6,120.03 329.33,118.64 330.34,117.05 329.09,115.63 330.11,114.05 328.88,112.62 329.93,111.05 
							328.72,109.61 329.79,108.06 328.61,106.59 329.71,105.06 328.55,103.58 329.67,102.07 328.54,100.56 329.69,99.07 
							328.59,97.55 329.78,96.08 328.71,94.53 329.93,93.1 328.89,91.53 330.14,90.12 329.15,88.52 330.44,87.15 329.49,85.52 
							330.82,84.18 329.91,82.53 331.28,81.23 330.43,79.55 331.84,78.29 331.05,76.58 332.51,75.38 331.79,73.64 333.3,72.5 
							332.65,70.73 334.21,69.66 333.64,67.86 335.26,66.87 334.79,65.03 336.46,64.13 336.1,62.27 337.82,61.48 337.58,59.6 
							339.36,58.93 339.26,57.03 341.09,56.51 341.15,54.6 343.02,54.24 343.26,52.35 345.15,52.17 345.58,50.31 347.49,50.33 
							348.14,48.54 350.03,48.8 350.76,47.38 351.43,47.72 350.45,49.62 348.64,49.36 348.02,51.09 346.18,51.07 345.76,52.86 
							343.93,53.04 343.7,54.87 341.88,55.22 341.82,57.08 340.04,57.59 340.14,59.44 338.4,60.09 338.63,61.93 336.95,62.71 
							337.3,64.53 335.66,65.42 336.12,67.22 334.53,68.19 335.09,69.97 333.55,71.02 334.19,72.77 332.7,73.89 333.42,75.61 
							331.98,76.79 332.76,78.49 331.36,79.72 332.2,81.39 330.85,82.67 331.74,84.31 330.43,85.64 331.37,87.25 330.09,88.61 
							331.08,90.2 329.83,91.59 330.86,93.16 329.65,94.58 330.71,96.12 329.54,97.57 330.63,99.09 329.48,100.57 330.61,102.06 
							329.49,103.57 330.64,105.04 329.55,106.56 330.73,108.02 329.66,109.56 330.86,111 329.82,112.56 331.05,113.99 
							330.03,115.56 331.27,116.97 330.27,118.56 331.54,119.94 330.56,121.54 331.84,122.91 330.89,124.52 332.18,125.87 
							331.24,127.49 332.56,128.83 331.64,130.46 332.96,131.78 332.06,133.42 333.4,134.73 332.52,136.38 333.87,137.67 
							333,139.34 334.37,140.62 333.51,142.29 334.89,143.56 334.05,145.23 335.44,146.49 334.61,148.18 336.01,149.43 
							335.2,151.12 336.61,152.35 335.81,154.05 337.23,155.28 336.44,156.98 337.87,158.2 337.1,159.91 338.54,161.12 
							337.77,162.83 339.22,164.03 338.47,165.75 339.92,166.94 339.18,168.67 340.64,169.85 340.16,170.99 340.38,170.99 						"/>
					</g>
				</g>
				<g>
					<path class="st0" d="M399.16,129.26l7.42,114.76l0.08,1.26l0.05,0.81l0.12,1.84l0.12,1.91l0.03,0.39l0.11,1.67l0.06,0.99
						l0.15,2.3l0.03,0.48l0.13,2.03l0.01,0.15l0.24,3.64l0.13,2.01l0.5,7.71c0.39,5.86-4.79,10.81-11.32,10.81h-0.71
						c-6.51,0-11.68-4.92-11.32-10.76l0.46-7.78l0.12-1.95l0.23-3.85l0.01-0.09l0.11-1.88l0.05-0.76l0.14-2.29l0.05-0.78l0.11-1.87
						l0.01-0.12l0.13-2.16l0.1-1.64l0.06-1l0.06-1.01l6.84-114.79c0.13-4.28-1.74-8.4-5.11-11.08c-3.08-2.45-5.65-6.27-7.43-10.97
						c-1.51-4-2.25-8.24-2.25-12.52l3.46-46.19c0.03-0.34,0.31-0.61,0.65-0.61h0.09c0.36,0,0.65,0.29,0.65,0.66v46.74
						c0,0.73,0.3,1.39,0.77,1.87c0.48,0.48,1.14,0.77,1.87,0.77c1.46,0,2.64-1.18,2.64-2.64l2.53-46.77
						c0.02-0.32,0.27-0.58,0.58-0.62c0.02,0,0.05,0,0.07,0h0.2c0.36,0,0.65,0.29,0.65,0.64l0.82,46.75c0,1.47,1.21,2.66,2.68,2.64
						c1.45-0.02,2.59-1.24,2.59-2.68l1.02-46.71c0.01-0.36,0.3-0.64,0.65-0.64h0.4c0.35,0,0.64,0.28,0.65,0.62l2.13,46.77
						c0,1.44,1.15,2.61,2.59,2.64c1.48,0.03,2.69-1.21,2.69-2.69V48.55c0-0.36,0.29-0.66,0.65-0.66c0.34,0,0.63,0.26,0.65,0.6
						l3.55,46.19c0,4.27-0.74,8.52-2.25,12.52c-1.77,4.7-4.35,8.52-7.43,10.97C400.91,120.86,399.03,124.98,399.16,129.26z"/>
					<path class="st0" d="M404.27,118.18c3.08-2.45,5.65-6.27,7.43-10.97c1.51-4,2.25-8.24,2.25-12.52L410.4,48.5
						c-0.03-0.34-0.31-0.61-0.65-0.61c-0.36,0-0.66,0.29-0.66,0.66v46.69c0,1.48-1.21,2.72-2.69,2.69c-1.43-0.03-2.59-1.2-2.59-2.64
						l-2.13-46.77c-0.02-0.35-0.3-0.63-0.65-0.63h-0.4c-0.36,0-0.65,0.28-0.66,0.64l-1.02,46.71c0,1.45-1.15,2.66-2.59,2.68
						c-1.48,0.02-2.68-1.17-2.68-2.64l-0.82-46.75c-0.01-0.36-0.3-0.64-0.66-0.64H392c-0.02,0-0.05,0-0.07,0
						c-0.32,0.03-0.57,0.29-0.58,0.62l-2.53,46.77c0,1.46-1.18,2.64-2.64,2.64c-0.73,0-1.39-0.3-1.87-0.77
						c-0.48-0.48-0.77-1.14-0.77-1.87V48.55c0-0.36-0.29-0.66-0.66-0.66h-0.09c-0.34,0-0.63,0.26-0.65,0.61l-3.46,46.19
						c0,4.27,0.74,8.52,2.25,12.52c1.77,4.7,4.35,8.52,7.43,10.97c2.11,1.68,3.63,3.93,4.44,6.43c0.94-0.44,2.17-0.71,3.51-0.71
						c1.34,0,2.57,0.27,3.51,0.71C400.64,122.11,402.16,119.86,404.27,118.18z"/>
					<path class="st1" d="M409.09,77.76v17.48c0,1.48-1.21,2.72-2.69,2.69c-1.43-0.03-2.59-1.2-2.59-2.64l-0.64-14.11
						c-1.36,0.85-2.68,1.72-3.96,2.6l-0.25,11.47c0,1.45-1.15,2.66-2.59,2.68c-1.48,0.02-2.68-1.17-2.68-2.64l-0.13-7.31
						c-1.58,1.26-3.09,2.54-4.54,3.84l-0.19,3.47c0,1.46-1.18,2.64-2.64,2.64c-0.73,0-1.39-0.3-1.87-0.77
						c-0.14-0.14-0.27-0.3-0.38-0.48c-1.62,1.66-3.15,3.33-4.58,4.99c0.37,1.88,0.89,3.74,1.57,5.54c1.77,4.7,4.35,8.52,7.43,10.97
						c2.11,1.68,3.63,3.93,4.44,6.43c0.94-0.44,2.17-0.71,3.51-0.71c1.34,0,2.57,0.27,3.51,0.71c0.81-2.5,2.33-4.75,4.44-6.43
						c3.08-2.45,5.65-6.27,7.43-10.97c1.51-4,2.25-8.24,2.25-12.52l-1.43-18.68C411.34,76.58,410.2,77.16,409.09,77.76z"/>
				</g>
				<g>
					<path class="st0" d="M165.84,276.95c36.43-2.6,70.37-27.46,82.61-61.62c3.89-10.56,5.82-22.07,5.48-33.22
						c-0.25-6.98-1.37-17.79-1.87-24.83c0,0-2.11-25.86-2.11-25.86h38.47l-2.11,25.86c-0.73,7.98-1.35,19.07-2.42,26.88
						c-1.53,11.02-4.63,21.65-9.1,31.69c-14.85,33.39-46.52,58.6-82.25,64.61c-8.9,1.5-17.89,1.9-26.7,1.23V276.95L165.84,276.95z"
						/>
					<g>
						<path class="st2" d="M208.73,50.21c-19.04,0-36.56,6.53-50.43,17.49c-18.9,14.92-31.03,38.03-31.03,63.97
							c0,44.99,36.47,81.46,81.46,81.46c15.48,0,29.96-4.32,42.28-11.82c23.49-14.29,39.18-40.13,39.18-69.64
							C290.19,86.68,253.72,50.21,208.73,50.21z"/>
						<g>
							<g>
								<path class="st3" d="M289.17,129.38c0,29.51-15.69,55.35-39.18,69.64c-12.33,7.5-26.8,11.82-42.28,11.82
									c-44.99,0-81.46-36.47-81.46-81.46c0-25.95,12.13-49.06,31.03-63.97c13.87-10.95,31.39-17.49,50.43-17.49
									C252.7,47.93,289.17,84.4,289.17,129.38z"/>
								<circle class="st0" cx="207.71" cy="129.38" r="80.49"/>
								<circle class="st4" cx="207.71" cy="130.56" r="53.41"/>
								<linearGradient id="SVGID_1_" gradientUnits="userSpaceOnUse" x1="207.7108" y1="76.313" x2="207.7108" y2="182.2666">
									<stop  offset="0" style="stop-color:#D1181F"/>
									<stop  offset="0.9946" style="stop-color:#F3F3F3"/>
								</linearGradient>
								<circle class="st5" cx="207.71" cy="129.43" r="53.41"/>
								<circle class="st0" cx="207.71" cy="129.43" r="42.95"/>
							</g>
							<path class="st6" d="M289.17,129.38c0,29.51-15.69,55.35-39.18,69.64c-0.03-0.36-0.07-0.72-0.11-1.07
								c-1.04-10.03-3.01-19.48-5.71-28.36c-0.09-0.29-0.18-0.59-0.27-0.88c-1.17-3.77-2.47-7.43-3.88-10.99
								c-11.68-29.46-31.11-51.94-49.1-67.83c-2.69-2.38-5.35-4.6-7.94-6.68c-0.28-0.23-0.57-0.45-0.85-0.68
								c-9.35-7.43-17.83-12.94-23.96-16.59c-0.3-0.18-0.6-0.36-0.9-0.53c13.87-10.95,31.39-17.49,50.43-17.49
								C252.7,47.93,289.17,84.4,289.17,129.38z"/>
						</g>
					</g>
				</g>
			</g>
			<g>
				<path class="st11" d="M92.82,445.68h354.55c10.81,0,19.58-8.76,19.58-19.58v-98.65c0-10.81-8.76-19.58-19.58-19.58H92.82
					c-10.81,0-19.58,8.76-19.58,19.58v98.65C73.25,436.92,82.01,445.68,92.82,445.68z"/>
				<g>
					<polygon class="st0" points="102.96,335.2 97.24,335.2 97.24,418.36 112.92,418.36 112.92,385.36 145.58,385.36 145.58,370.26 
						112.92,370.26 112.92,350.3 151.87,350.3 151.87,335.2 112.92,335.2 					"/>
					<path class="st0" d="M207.32,338.14c-4.6-2.54-9.91-3.8-15.93-3.8c-6.03,0-11.34,1.27-15.93,3.8
						c-4.59,2.54-8.15,6.12-10.67,10.75c-2.52,4.63-3.78,10-3.78,16.1v23.57c0,6.1,1.26,11.47,3.78,16.1
						c2.52,4.63,6.07,8.22,10.67,10.75c4.59,2.54,9.9,3.8,15.93,3.8c6.02,0,11.33-1.27,15.93-3.8c4.59-2.54,8.15-6.12,10.67-10.75
						c2.52-4.63,3.78-10,3.78-16.1V365c0-6.1-1.26-11.47-3.78-16.1C215.47,344.26,211.92,340.68,207.32,338.14z M205.52,388.96
						c0,2.9-0.58,5.45-1.75,7.66c-1.16,2.21-2.81,3.92-4.95,5.12c-2.14,1.2-4.61,1.8-7.44,1.8c-2.82,0-5.3-0.6-7.44-1.8
						s-3.78-2.91-4.95-5.12c-1.16-2.21-1.75-4.77-1.75-7.66V364.6c0-2.9,0.58-5.45,1.75-7.66c1.16-2.21,2.81-3.92,4.95-5.12
						s4.61-1.8,7.44-1.8c2.82,0,5.3,0.6,7.44,1.8c2.13,1.2,3.78,2.91,4.95,5.12c1.16,2.21,1.75,4.77,1.75,7.66V388.96z"/>
					<path class="st0" d="M280.65,338.14c-4.6-2.54-9.91-3.8-15.93-3.8c-6.03,0-11.34,1.27-15.93,3.8
						c-4.59,2.54-8.15,6.12-10.67,10.75c-2.52,4.63-3.78,10-3.78,16.1v23.57c0,6.1,1.26,11.47,3.78,16.1
						c2.52,4.63,6.07,8.22,10.67,10.75c4.59,2.54,9.9,3.8,15.93,3.8c6.02,0,11.33-1.27,15.93-3.8c4.59-2.54,8.15-6.12,10.67-10.75
						c2.52-4.63,3.78-10,3.78-16.1V365c0-6.1-1.26-11.47-3.78-16.1C288.8,344.26,285.25,340.68,280.65,338.14z M278.85,388.96
						c0,2.9-0.58,5.45-1.75,7.66c-1.16,2.21-2.81,3.92-4.95,5.12c-2.14,1.2-4.61,1.8-7.44,1.8c-2.82,0-5.3-0.6-7.44-1.8
						s-3.78-2.91-4.95-5.12c-1.16-2.21-1.75-4.77-1.75-7.66V364.6c0-2.9,0.58-5.45,1.75-7.66c1.16-2.21,2.81-3.92,4.95-5.12
						s4.61-1.8,7.44-1.8c2.82,0,5.3,0.6,7.44,1.8c2.13,1.2,3.78,2.91,4.95,5.12c1.16,2.21,1.75,4.77,1.75,7.66V388.96z"/>
					<path class="st0" d="M355.81,338.68c-4.9-2.33-10.82-3.49-17.76-3.49h-11.84h-7.78h-7.89v83.17h7.89h7.78h11.78
						c7.13,0,13.16-1.24,18.07-3.72c4.92-2.48,8.61-5.95,11.07-10.41c2.46-4.46,3.69-9.69,3.69-15.67V365
						c0-6.29-1.28-11.67-3.83-16.13S360.71,341.01,355.81,338.68z M354.58,389.02c0,4.54-1.41,8.05-4.23,10.52
						c-2.82,2.48-6.81,3.72-11.95,3.72h-12.18V350.3h12.18c5.15,0,9.13,1.24,11.95,3.72c2.82,2.48,4.23,5.99,4.23,10.52V389.02z"/>
					<path class="st0" d="M439.4,380.52c-2.36-3.26-5.31-5.62-8.84-7.09c-3.53-1.47-7.92-2.72-13.18-3.75
						c-0.23-0.04-0.45-0.09-0.66-0.14c-0.21-0.06-0.43-0.1-0.66-0.14c-0.15-0.04-0.31-0.07-0.46-0.09
						c-0.15-0.02-0.31-0.05-0.46-0.09c-3.66-0.72-6.5-1.41-8.52-2.06c-2.02-0.65-3.72-1.67-5.09-3.06
						c-1.37-1.39-2.06-3.29-2.06-5.69v-0.06c0-2.86,1.32-5.08,3.95-6.66c2.63-1.58,6.35-2.37,11.15-2.37c3.2,0,6.55,0.61,10.04,1.83
						c3.49,1.22,6.83,2.94,10.04,5.15l6.63-13.27c-2.67-1.83-5.49-3.39-8.46-4.69c-2.97-1.3-6.02-2.29-9.12-2.97
						c-3.11-0.69-6.15-1.03-9.12-1.03c-6.48,0-12.01,1-16.59,3s-8.07,4.91-10.47,8.72c-2.4,3.81-3.6,8.41-3.6,13.78v0.06
						c0,6.06,1.28,10.74,3.83,14.04c2.55,3.3,5.66,5.61,9.32,6.92c3.66,1.32,8.27,2.41,13.84,3.29l1.26,0.17
						c0.11,0.04,0.22,0.06,0.31,0.06c0.09,0,0.2,0.02,0.31,0.06c3.16,0.5,5.76,1.05,7.78,1.66c2.02,0.61,3.66,1.56,4.92,2.86
						c1.26,1.3,1.89,3.05,1.89,5.26v0.06c0,3.17-1.41,5.62-4.23,7.35c-2.82,1.74-6.79,2.6-11.9,2.6c-4.42,0-8.73-0.71-12.93-2.15
						c-4.2-1.43-7.89-3.46-11.1-6.09l-7.26,12.93c2.63,2.17,5.61,4.03,8.95,5.58s6.9,2.72,10.7,3.52c3.79,0.8,7.67,1.2,11.64,1.2
						c6.67,0,12.38-0.99,17.13-2.97c4.75-1.98,8.36-4.86,10.84-8.64c2.48-3.77,3.72-8.31,3.72-13.61v-0.11
						C442.95,388.24,441.77,383.79,439.4,380.52z"/>
				</g>
			</g>
		</g>
		<g>
			<path class="st0" d="M135.96,496.36c0,2-0.45,3.89-1.36,5.68c-1.03,2-2.48,3.58-4.36,4.73c-2.14,1.31-4.71,1.96-7.71,1.96
				c-3.95,0-7.08-1.22-9.39-3.67c-2.18-2.32-3.28-5.32-3.28-8.98c0-3.6,1.3-6.55,3.9-8.84c2.31-2.03,4.93-3.05,7.87-3.05h1.5
				l-0.3,0.65c-2.92,0-5.42,1-7.48,3c-2.14,2.06-3.21,4.64-3.21,7.73c0,2.86,1.02,5.31,3.05,7.34c2.03,2.03,4.48,3.05,7.34,3.05
				c3.52,0,6.22-1.02,8.1-3.07c1.71-1.86,2.56-4.35,2.56-7.45v-13.25l2.77-2.77V496.36z M125.69,492.46c0,0.54-0.19,1-0.58,1.38
				c-0.38,0.38-0.85,0.58-1.41,0.58c-0.54,0-1-0.19-1.4-0.57c-0.39-0.38-0.59-0.84-0.59-1.4s0.19-1.02,0.58-1.41
				c0.38-0.38,0.85-0.58,1.41-0.58c0.55,0,1.02,0.19,1.41,0.58C125.5,491.44,125.69,491.91,125.69,492.46z"/>
			<path class="st0" d="M147.41,497.19h-6.83v-36.23l2.77-2.77v36.23h4.06V497.19z"/>
			<path class="st0" d="M173.44,497.19h-1.18c-1.57,0-3.01-0.4-4.31-1.2c-0.92-0.57-1.95-1.48-3.07-2.72
				c-0.85-0.94-1.69-1.88-2.54-2.84c-1.38,1.28-2.43,2.18-3.14,2.72c-1.54,1.18-3.05,2.11-4.55,2.77c-1.94,0.85-3.87,1.27-5.79,1.27
				h-1.45v-2.77h1.45c1.51,0,3.06-0.34,4.66-1.02c1.35-0.57,2.67-1.34,3.95-2.31c0.97-0.74,1.89-1.58,2.77-2.52
				c-1.37-1.12-2.34-1.9-2.91-2.33c-1.23-0.91-2.45-1.67-3.65-2.28c-1.48-0.75-3.18-1.42-5.1-1.98v-2.17
				c0.95-0.63,2.25-1.12,3.88-1.45c1.34-0.28,2.9-0.46,4.68-0.55c1.78-0.09,3.83-0.14,6.14-0.14h6.9v2.77c0,0.66-0.42,1.56-1.27,2.7
				c-0.15,0.2-1.71,1.96-4.66,5.28c1.2,1.26,2.4,2.52,3.6,3.76c1.62,1.49,3.08,2.24,4.41,2.24h1.18V497.19z M167.18,480.69v-0.25
				h-3.9c-2.63,0-4.7,0.03-6.21,0.08c-1.51,0.05-2.73,0.19-3.67,0.4v0.09c0.8,0.2,1.7,0.58,2.7,1.15c0.78,0.45,1.78,1.12,3,2.01
				c0.95,0.69,1.98,1.5,3.09,2.42c0.62-0.63,1.24-1.26,1.87-1.89c0.91-0.94,1.61-1.71,2.1-2.31
				C166.84,481.57,167.18,481,167.18,480.69z"/>
			<path class="st0" d="M202.05,486.69l-2.77,2.77h-1.96c-3.31,0-6.19,0.66-8.65,1.98c-1.92,1.25-3.84,2.49-5.75,3.74
				c-2.32,1.34-4.92,2.01-7.78,2.01h-1.71v-2.77h1.71c1.98,0,3.92-0.45,5.81-1.34c0.72-0.34,2.35-1.31,4.87-2.91
				c2-1.26,3.74-2.14,5.21-2.63l-7.52-4.87c-0.49-0.38-1.1-0.71-1.82-0.98c-0.72-0.27-1.35-0.4-1.87-0.4h-0.46
				c-0.77,0-1.52,0.33-2.24,0.99c-0.72,0.66-1.08,1.43-1.08,2.31v1.36l-0.42,0.16c-0.17-0.29-0.29-0.53-0.37-0.72
				c-0.25-0.58-0.37-1.15-0.37-1.68c0-1.51,0.38-2.73,1.13-3.67c0.81-1.02,1.93-1.52,3.35-1.52h0.46c1.71,0,3.53,0.63,5.47,1.89
				l6.88,4.5c0.6,0.38,1.31,0.76,2.15,1.13c1,0.43,1.78,0.65,2.33,0.65H202.05z M189.52,501.95c0,0.54-0.19,1-0.58,1.38
				c-0.38,0.38-0.85,0.58-1.41,0.58c-0.54,0-1-0.19-1.4-0.57c-0.39-0.38-0.59-0.84-0.59-1.4s0.19-1.02,0.58-1.41
				c0.38-0.38,0.85-0.58,1.41-0.58s1.02,0.19,1.41,0.58C189.33,500.92,189.52,501.39,189.52,501.95z"/>
			<path class="st0" d="M259.11,497.19h-1.02c-1.18,0-2.13-0.18-2.84-0.55s-1.28-0.94-1.71-1.71c-0.23,0.69-0.72,1.24-1.45,1.65
				s-1.65,0.61-2.72,0.61h-18.65c-2.71,0-4.85-0.5-6.44-1.5c-1.74-1.09-2.61-2.67-2.61-4.73c0-1.38,0.53-2.81,1.59-4.29
				c0.52-0.72,1.48-1.78,2.86-3.16l1.31-1.32l0.44,0.6l-0.99,1.32c-0.72,0.95-1.25,1.68-1.57,2.17c-1,1.51-1.5,2.78-1.5,3.83
				c0,1.48,0.81,2.61,2.42,3.39c1.28,0.62,2.77,0.92,4.48,0.92h18.65c0.92,0,1.58-0.25,1.96-0.75c0.38-0.5,0.58-1.33,0.58-2.48v-9
				l2.77-2.77v11.12c0,1.05,0.34,1.95,1.02,2.72c0.68,0.77,1.48,1.15,2.4,1.15h1.02V497.19z M239.94,480.23c0,0.54-0.19,1-0.58,1.38
				c-0.38,0.38-0.85,0.58-1.41,0.58c-0.54,0-1-0.19-1.4-0.57c-0.39-0.38-0.59-0.84-0.59-1.4s0.19-1.02,0.58-1.41
				c0.38-0.38,0.85-0.58,1.41-0.58s1.02,0.19,1.41,0.58C239.75,479.21,239.94,479.68,239.94,480.23z M244.81,480.23
				c0,0.54-0.19,1-0.58,1.38c-0.38,0.38-0.85,0.58-1.41,0.58c-0.54,0-1-0.19-1.4-0.57c-0.39-0.38-0.59-0.84-0.59-1.4
				s0.19-1.02,0.58-1.41c0.38-0.38,0.85-0.58,1.41-0.58s1.02,0.19,1.41,0.58C244.62,479.21,244.81,479.68,244.81,480.23z"/>
			<path class="st0" d="M268.02,491.19c0,2.03-0.52,3.55-1.57,4.57c-0.98,0.95-2.38,1.43-4.2,1.43h-3.14v-2.77h3.14
				c0.98,0,1.72-0.22,2.19-0.67c0.54-0.51,0.81-1.36,0.81-2.56v-9l2.77-2.77V491.19z M266.06,474.74c0,0.54-0.19,1-0.58,1.38
				c-0.38,0.38-0.85,0.58-1.41,0.58c-0.54,0-1-0.19-1.4-0.57c-0.39-0.38-0.59-0.84-0.59-1.4s0.19-1.02,0.58-1.41
				c0.38-0.38,0.85-0.58,1.41-0.58c0.55,0,1.02,0.19,1.41,0.58C265.87,473.72,266.06,474.19,266.06,474.74z"/>
			<path class="st0" d="M282.97,470.96l-1.22,1.96c-0.62,0.08-1.26,0.22-1.94,0.42c-0.68,0.2-1.37,0.4-2.08,0.6
				c-0.71,0.2-1.38,0.36-2.01,0.47c-0.63,0.12-1.32,0.17-2.08,0.17h-1.02l1.27-1.94h0.51c0.37,0,0.67-0.09,0.9-0.28
				c-0.35-0.34-0.63-0.67-0.83-0.99c-0.29-0.48-0.44-0.95-0.44-1.43c0-0.92,0.32-1.63,0.97-2.12c0.65-0.49,1.46-0.74,2.45-0.74
				c0.69,0,1.37,0.25,2.03,0.74c0.22,0.15,0.48,0.4,0.78,0.74l-0.39,0.35c-0.31-0.12-0.55-0.22-0.72-0.28
				c-0.55-0.2-0.95-0.3-1.18-0.3c-0.49,0-0.91,0.14-1.25,0.42c-0.34,0.28-0.51,0.68-0.51,1.2c0,0.45,0.27,0.86,0.8,1.23
				c0.53,0.38,1.08,0.57,1.65,0.57c0.82-0.2,1.57-0.38,2.25-0.54S282.3,470.96,282.97,470.96z M278.68,497.19
				c0,3.48-0.31,6.45-0.92,8.93c-0.49,1.98-1.18,3.65-2.05,4.98c-0.62,0.92-1.31,1.67-2.08,2.24h-0.32c0.08,0,0.3-0.39,0.67-1.18
				c0.54-1.14,0.96-2.45,1.27-3.95c0.45-2.12,0.67-4.53,0.67-7.22v-25.31l2.77-0.72V497.19z M278.68,466.09
				c-0.29-0.09-0.5-0.15-0.61-0.17c-0.12-0.02-0.35-0.03-0.7-0.03c-0.46,0-0.95,0.1-1.45,0.3v-4.96l2.77-2.77V466.09z"/>
			<path class="st0" d="M303.05,494.42c0,4.4-0.31,7.98-0.92,10.73c-0.49,2.18-1.22,3.98-2.17,5.38c-0.4,0.58-1.25,1.52-2.54,2.82
				h-0.32c0.05,0,0.32-0.49,0.81-1.48c0.65-1.29,1.16-2.59,1.55-3.9c0.55-1.89,0.83-3.73,0.83-5.52v-7.36
				c-0.6,0.65-1.34,1.16-2.22,1.53c-0.88,0.38-1.79,0.57-2.75,0.57c-2.4,0-4.31-0.86-5.72-2.58c-1.34-1.63-2.01-3.73-2.01-6.3
				c0-2.51,0.72-4.62,2.17-6.32c1.45-1.71,3.3-2.56,5.56-2.56c2.26,0,4.12,0.85,5.56,2.56s2.17,3.82,2.17,6.32V494.42z
				 M300.28,488.31c0-1.72-0.44-3.15-1.32-4.29c-0.94-1.22-2.15-1.82-3.65-1.82c-1.48,0-2.67,0.59-3.59,1.78
				c-0.92,1.19-1.37,2.63-1.37,4.34c0,1.72,0.44,3.15,1.31,4.29c0.94,1.22,2.15,1.82,3.65,1.82c1.48,0,2.68-0.61,3.62-1.82
				C299.83,491.45,300.28,490.02,300.28,488.31z"/>
			<path class="st0" d="M360.11,497.19h-1.02c-1.18,0-2.13-0.18-2.84-0.55s-1.28-0.94-1.71-1.71c-0.23,0.69-0.72,1.24-1.45,1.65
				s-1.65,0.61-2.72,0.61h-18.65c-2.71,0-4.85-0.5-6.44-1.5c-1.74-1.09-2.61-2.67-2.61-4.73c0-1.38,0.53-2.81,1.59-4.29
				c0.52-0.72,1.48-1.78,2.86-3.16l1.31-1.32l0.44,0.6l-0.99,1.32c-0.72,0.95-1.25,1.68-1.57,2.17c-1,1.51-1.5,2.78-1.5,3.83
				c0,1.48,0.81,2.61,2.42,3.39c1.28,0.62,2.77,0.92,4.48,0.92h18.65c0.92,0,1.58-0.25,1.96-0.75c0.38-0.5,0.58-1.33,0.58-2.48
				v-30.23l2.77-2.77v32.35c0,1.05,0.34,1.95,1.02,2.72c0.68,0.77,1.48,1.15,2.4,1.15h1.02V497.19z M343.22,479.68l-0.67,1.98
				c-0.11,0-0.25,0-0.42,0.01s-0.37,0.07-0.6,0.2l-1.73,0.88c-0.12,0.08-0.18,0.18-0.18,0.32s0.06,0.24,0.18,0.3l1.71,0.85
				c0.46,0.23,0.81,0.51,1.04,0.84c0.23,0.33,0.35,0.67,0.35,1c0,0.49-0.08,0.88-0.25,1.15c-0.23,0.37-0.65,0.65-1.25,0.83
				l-0.76,0.23c-0.45,0.12-0.84,0.18-1.18,0.18c-0.6,0-1.18-0.15-1.75-0.44c-0.34-0.2-0.67-0.4-0.99-0.6v-0.3
				c0.06,0,0.18,0.01,0.36,0.02s0.36,0.02,0.54,0.02c0.29,0,0.59-0.02,0.89-0.06c0.3-0.04,0.58-0.1,0.84-0.2l1.29-0.44
				c0.17-0.09,0.25-0.22,0.25-0.37c0-0.15-0.08-0.28-0.23-0.37l-1.8-0.9c-0.4-0.2-0.7-0.45-0.91-0.74c-0.21-0.29-0.31-0.6-0.31-0.92
				c0-0.43,0.1-0.79,0.31-1.08c0.21-0.29,0.53-0.58,0.96-0.85l1.71-0.85c0.75-0.37,1.42-0.6,1.98-0.69
				C342.79,479.69,342.99,479.68,343.22,479.68z"/>
			<path class="st0" d="M379.64,497.19h-19.52v-2.77h3.05c-1.32-1.66-1.98-3.7-1.98-6.11c0-2.51,0.72-4.62,2.17-6.32
				c1.45-1.71,3.3-2.56,5.56-2.56c2.26,0,4.12,0.85,5.56,2.55c1.45,1.7,2.17,3.81,2.17,6.33c0,2.43-0.67,4.47-2.01,6.11h5.01V497.19
				z M366.02,474.74c0,0.54-0.19,1-0.58,1.38c-0.38,0.38-0.85,0.58-1.41,0.58c-0.54,0-1-0.19-1.4-0.57
				c-0.39-0.38-0.59-0.84-0.59-1.4s0.19-1.02,0.58-1.41c0.38-0.38,0.85-0.58,1.41-0.58s1.02,0.19,1.41,0.58
				C365.83,473.72,366.02,474.19,366.02,474.74z M373.87,488.31c0-1.72-0.44-3.15-1.32-4.29c-0.94-1.22-2.15-1.82-3.65-1.82
				c-1.48,0-2.67,0.59-3.59,1.78c-0.92,1.19-1.37,2.63-1.37,4.34c0,1.72,0.44,3.15,1.32,4.29c0.94,1.22,2.15,1.82,3.65,1.82
				c1.48,0,2.68-0.61,3.62-1.82C373.42,491.45,373.87,490.02,373.87,488.31z M370.89,474.74c0,0.54-0.19,1-0.58,1.38
				c-0.38,0.38-0.85,0.58-1.41,0.58c-0.54,0-1-0.19-1.4-0.57c-0.39-0.38-0.59-0.84-0.59-1.4s0.19-1.02,0.58-1.41
				c0.38-0.38,0.85-0.58,1.41-0.58c0.55,0,1.02,0.19,1.41,0.58C370.7,473.72,370.89,474.19,370.89,474.74z"/>
			<path class="st0" d="M408.85,497.19h-1.27c-2.66,0-4.88-0.47-6.65-1.41c-2.06-1.09-3.09-2.66-3.09-4.71v-0.85
				c-1.65,0.49-3.41,1.38-5.28,2.65c-2.38,1.62-3.93,2.59-4.64,2.93c-1.95,0.92-4.15,1.38-6.58,1.38h-1.71v-2.77h1.71
				c1.98,0,3.92-0.45,5.81-1.34c0.72-0.34,2.35-1.31,4.87-2.91c2-1.26,3.74-2.14,5.21-2.63l-7.52-4.87
				c-0.49-0.38-1.1-0.71-1.82-0.98c-0.72-0.27-1.35-0.4-1.87-0.4h-0.46c-0.77,0-1.52,0.33-2.24,0.99c-0.72,0.66-1.08,1.43-1.08,2.31
				v1.36l-0.42,0.16c-0.17-0.29-0.29-0.53-0.37-0.72c-0.25-0.58-0.37-1.15-0.37-1.68c0-1.51,0.38-2.73,1.13-3.67
				c0.81-1.02,1.93-1.52,3.35-1.52h0.46c1.71,0,3.53,0.63,5.47,1.89l6.88,4.5c0.6,0.38,1.31,0.76,2.15,1.13
				c1,0.43,1.78,0.65,2.33,0.65h5.4l-2.77,2.77h-1.96c-1.03,0-2.02,0.06-2.98,0.18v0.58c0,1.46,0.83,2.57,2.49,3.32
				c1.29,0.58,2.81,0.88,4.55,0.88h1.27V497.19z"/>
			<path class="st0" d="M421.43,497.19h-1.48c-1.18,0-2.16-0.19-2.92-0.58c-0.76-0.38-1.38-0.95-1.86-1.68
				c-0.48,0.77-1.13,1.34-1.95,1.71s-1.8,0.55-2.92,0.55h-1.45v-2.77h1.45c0.95,0,1.69-0.27,2.22-0.81
				c0.52-0.54,0.78-1.35,0.78-2.42v-30.23l2.77-2.77v32.35c0,1.03,0.41,1.93,1.22,2.71c0.82,0.78,1.7,1.17,2.65,1.17h1.48V497.19z"
				/>
			<path class="st0" d="M430.33,491.19c0,2.03-0.52,3.55-1.57,4.57c-0.98,0.95-2.38,1.43-4.2,1.43h-3.14v-2.77h3.14
				c0.98,0,1.72-0.22,2.19-0.67c0.54-0.51,0.81-1.36,0.81-2.56v-9l2.77-2.77V491.19z M428.37,474.74c0,0.54-0.19,1-0.58,1.38
				c-0.38,0.38-0.85,0.58-1.41,0.58c-0.54,0-1-0.19-1.4-0.57c-0.39-0.38-0.59-0.84-0.59-1.4s0.19-1.02,0.58-1.41
				c0.38-0.38,0.85-0.58,1.41-0.58c0.55,0,1.02,0.19,1.41,0.58C428.18,473.72,428.37,474.19,428.37,474.74z"/>
		</g>
	</g>
</g>
</svg>
