<?xml version="1.0" encoding="utf-8"?>
<!-- Generator: Adobe Illustrator 26.2.1, SVG Export Plug-In . SVG Version: 6.00 Build 0)  -->
<svg version="1.1" xmlns="http://www.w3.org/2000/svg" xmlns:xlink="http://www.w3.org/1999/xlink" x="0px" y="0px"
	 viewBox="0 0 540.2 566.93" style="enable-background:new 0 0 540.2 566.93;" xml:space="preserve">
<style type="text/css">
	.st0{fill:#D1181F;}
	.st1{opacity:0.24;fill:#D1181F;}
	.st2{opacity:0.35;fill:#010101;}
	.st3{fill:#670000;}
	.st4{fill:#FFFFFF;}
	.st5{fill:url(#SVGID_1_);}
	.st6{opacity:0.15;fill:#FFFFFF;}
	.st7{fill:url(#SVGID_00000021094934331700901880000014149859478001574575_);}
	.st8{fill:none;stroke:#D1181F;stroke-miterlimit:10;}
	.st9{fill:url(#SVGID_00000039827979679500525700000002312243775175960741_);}
	.st10{fill:url(#SVGID_00000093866704483667154120000000398575402912030640_);}
	.st11{fill:none;stroke:#D1181F;stroke-width:3;stroke-miterlimit:10;}
	.st12{fill:url(#SVGID_00000057838488127617098950000013051481634175679661_);}
	.st13{fill:url(#SVGID_00000072272114754305304590000015373590570722174870_);}
	.st14{fill:url(#SVGID_00000106142781671794774010000010922016151294732700_);}
	.st15{fill:#D1181F;stroke:#D1181F;stroke-width:2;stroke-miterlimit:10;}
	.st16{fill:url(#SVGID_00000142884758311281735370000002311524456851233678_);}
	.st17{opacity:0.24;}
	.st18{opacity:0.35;}
	.st19{fill:#010101;}
	.st20{fill:url(#SVGID_00000162325739281961497450000008890287599406658974_);}
	.st21{opacity:0.15;}
	.st22{fill:url(#SVGID_00000023964950549065091160000003156361014966707873_);}
	.st23{fill:url(#SVGID_00000014613579312374851870000003286127957593359532_);}
	.st24{fill:url(#SVGID_00000121968799900001515520000016837970415674393497_);}
</style>
<g id="Layer_1">
</g>
<g id="Layer_2">
	<g>
		<path class="st11" d="M191.83,298.88c17.07,0,34.13-0.01,51.2,0c16.37,0.01,26.77,10.43,26.75,26.82c0,2.99,0.66,6.27-0.36,8.89
			c-1.12,2.88-5.03,1.98-7.62,3.04c-9.93,4.06-16.47,10.87-18.84,21.53c-0.86,3.88-0.02,7.51,1.05,11.1
			c5.57,18.73,22.32,32.88,43.68,33.31c10.62,0.22,21.27,0.65,31.88-0.43c21.7-2.2,40.09-21.95,40.36-43.79
			c0.22-18.28,0.51-36.59-0.14-54.85c-0.8-22.67-8.1-43.64-18.85-63.47c-3.81-7.02-8.15-13.69-12.94-20.09
			c-3.53-4.73-5.35-10.17-5.23-16.15c0.07-3.54-0.19-7.13,0.26-10.62c1.53-11.88,9.76-19.94,21.81-21.65
			c12.61-1.78,25.22-3.54,37.83-5.29c9.33-1.29,15.91,1.55,19.59,8.42c1.45,2.71,1.66,5.69,2,8.67c0.45,4.07,1.16,8.11,1.67,12.18
			c1.31,10.42-5.27,18.47-15.73,19.38c-2.09,0.18-4.2,0.41-6.26,0.82c-5.1,1.02-6.86,5.08-3.94,9.44c2.89,4.32,6.11,8.42,9.15,12.65
			c15.92,22.13,29.43,45.59,39.13,71.14c0.91,2.4,2.32,3.71,4.89,4.34c23.37,5.72,43.55,17.29,60.61,34.15
			c10.07,9.95,18.25,21.4,24.52,34.13c3.29,6.69,1.73,14-4.17,18.89c-1.66,1.38-1.79,2.27-0.95,4.08
			c10.29,22.31,9.13,44.13-3.53,65.11c-17.73,29.38-57.7,40.01-87.85,23.5c-20.94-11.47-32.75-29.17-35.4-52.93
			c-0.59-5.26-0.59-5.26-5.99-5.26c-95.52,0-191.05,0-286.57,0c-13.83,0-23.99-8.93-25.52-22.52c-0.53-4.73,1-9.21,2.26-13.68
			c6.79-24.09,19.45-44.7,38.18-61.15c5.42-4.76,7.66-9.13,7.4-16.19c-0.53-14.65,8.38-23.38,23.15-23.48
			C156.81,298.79,174.32,298.88,191.83,298.88z M453.08,413.25c-12.14-0.03-21.73,9.48-21.78,21.6
			c-0.05,12.03,9.68,21.81,21.66,21.78c12.13-0.04,21.92-9.86,21.92-22.01C474.88,423.03,464.93,413.28,453.08,413.25z"/>
		<path class="st8" d="M184.97,158.96c18.84,0,37.69,0.39,56.52-0.13c14.31-0.39,26.65,9.53,26.69,25.94
			c0.06,26.04,0.6,52.08-0.36,78.11c-0.47,12.76-11.73,22.59-25.8,22.64c-25.49,0.08-50.98,0.08-76.47,0.01
			c-21.27-0.06-42.54-0.25-63.81-0.4c-4.74-0.03-7.4-2.27-7.41-6.15c0-3.48,2.82-5.93,7.36-6.02c6.65-0.13,13.3-0.02,19.95-0.06
			c4.28-0.03,6.74-1.96,6.75-5.19c0.01-3.12-2.65-5.24-6.77-5.25c-14.96-0.03-29.92-0.02-44.88-0.02c-1.22,0-2.45,0.05-3.65-0.11
			c-3.11-0.43-5.22-2.84-5.26-5.9c-0.04-3.2,2.11-5.77,5.34-6.17c1.42-0.18,2.88-0.1,4.32-0.11c13.63-0.01,27.26,0.01,40.89-0.01
			c3.99-0.01,6.65-2.01,6.75-4.91c0.11-3.35-2.48-5.41-6.85-5.47c-0.55-0.01-1.11,0-1.66,0c-11.41,0-22.83,0-34.24,0
			c-0.78,0-1.55,0.02-2.33,0c-4.4-0.11-7.29-2.78-7.13-6.58c0.15-3.49,3.28-5.95,7.5-5.93c14.4,0.08,28.81,0.16,43.21,0.21
			c1.65,0.01,3.33-0.09,4.96-0.36c2.85-0.46,4.62-2.08,4.65-5.13c0.02-2.63-2.17-4.89-5.06-5.26c-0.87-0.11-1.77-0.07-2.66-0.07
			c-22.83,0.01-45.66,0.03-68.49,0.04c-1,0-2.01,0.03-2.98-0.12c-2.85-0.44-5.03-2.85-5.21-5.66c-0.18-2.77,1.72-5.39,4.63-6.06
			c1.49-0.34,3.07-0.41,4.61-0.41c19.84-0.03,39.67-0.02,59.51-0.02c1.11,0,2.23,0.05,3.32-0.09c2.82-0.38,4.4-2.19,4.55-4.9
			c0.15-2.77-1.42-4.64-4.13-5.25c-1.27-0.29-2.64-0.2-3.97-0.2c-15.18-0.01-30.37,0-45.55,0c-1.22,0-2.45,0.06-3.65-0.11
			c-3.28-0.45-5.51-3.02-5.42-6.11c0.1-3.24,2.25-5.62,5.55-6c1.2-0.14,2.43-0.08,3.65-0.08c21.17,0,42.33,0,63.5,0
			c1.22,0,2.46,0.07,3.65-0.12c2.86-0.46,4.93-2.93,4.65-5.55c-0.32-2.99-2.14-4.6-5.09-4.66c-5.1-0.11-10.19-0.03-15.29-0.07
			c-3.11-0.03-5.68-2.6-5.98-5.88c-0.28-3.02,1.94-5.93,5.1-6.32c1.96-0.25,3.98-0.08,5.97-0.08
			C147.29,158.96,166.13,158.96,184.97,158.96z"/>
		<path class="st11" d="M130.34,447.71c6.76,0,13.52,0.05,20.28-0.03c2.14-0.03,3.74,0.55,5.24,2.19c9.08,9.87,24.91,7.98,31.11,0.1
			c1.5-1.91,3.58-2.3,5.94-2.29c13.3,0.07,26.6,0.02,39.89,0.04c4.41,0,4.62,0.29,3.53,4.56c-6.3,24.82-28.46,45.13-53.91,48.67
			c-27.19,3.78-49.19-5.57-65.68-27.53c-4.77-6.35-7.87-13.59-9.99-21.24c-1.13-4.06-0.83-4.45,3.31-4.46
			C116.82,447.69,123.58,447.71,130.34,447.71z"/>
		<path class="st8" d="M49.21,262.42c-2.76,0-5.52,0.1-8.28-0.02c-3.92-0.17-6.29-2.66-6.21-6.29c0.08-3.53,2.36-5.84,6.2-5.93
			c5.52-0.12,11.04-0.12,16.56,0c3.83,0.08,6.14,2.43,6.21,5.92c0.08,3.64-2.29,6.12-6.2,6.29
			C54.73,262.52,51.97,262.42,49.21,262.42z"/>
		<path class="st8" d="M30.47,216.58c-1.99,0-3.99,0.14-5.96-0.03c-3.04-0.27-5.19-2.45-5.51-5.3c-0.3-2.65,1.51-5.7,4.33-6.29
			c4.89-1.02,9.9-1.05,14.77,0.03c2.92,0.65,4.27,3.03,4.2,6c-0.06,2.81-2.28,5.13-5.22,5.55c-1.09,0.16-2.2,0.11-3.3,0.12
			c-1.1,0.02-2.21,0-3.31,0C30.47,216.64,30.47,216.61,30.47,216.58z"/>
		<path class="st8" d="M71.94,285.1c-1.87,0-3.75,0.08-5.62-0.02c-3.23-0.16-5.51-2.22-5.9-5.17c-0.38-2.9,1.39-5.94,4.39-6.52
			c4.78-0.92,9.67-0.94,14.45,0.03c2.99,0.61,4.68,3.61,4.28,6.58c-0.39,2.88-2.5,4.85-5.64,5.05c-1.98,0.13-3.97,0.02-5.95,0.02
			C71.94,285.09,71.94,285.09,71.94,285.1z"/>
		<path class="st8" d="M98.57,171.26c-2.27,0.01-4.44-0.32-6.12-2.04c-3.25-3.33-1.77-8.89,2.71-10.08c2.3-0.61,4.66-0.51,6.9,0.15
			c2.63,0.77,3.97,2.82,4.07,5.48c0.1,2.67-1.24,4.65-3.66,5.83C101.24,171.21,99.91,171.28,98.57,171.26z"/>
	</g>
	<g>
		<g>
			<polygon class="st0" points="156.94,257.05 155.35,257.05 155.35,280.24 159.72,280.24 159.72,271.04 168.82,271.04 
				168.82,266.83 159.72,266.83 159.72,261.26 170.58,261.26 170.58,257.05 159.72,257.05 			"/>
			<path class="st0" d="M186.04,257.87c-1.28-0.71-2.76-1.06-4.44-1.06c-1.68,0-3.16,0.35-4.44,1.06c-1.28,0.71-2.27,1.71-2.97,3
				c-0.7,1.29-1.05,2.79-1.05,4.49v6.57c0,1.7,0.35,3.2,1.05,4.49c0.7,1.29,1.69,2.29,2.97,3c1.28,0.71,2.76,1.06,4.44,1.06
				c1.68,0,3.16-0.35,4.44-1.06c1.28-0.71,2.27-1.71,2.97-3c0.7-1.29,1.05-2.79,1.05-4.49v-6.57c0-1.7-0.35-3.2-1.05-4.49
				C188.31,259.58,187.32,258.58,186.04,257.87z M185.54,272.04c0,0.81-0.16,1.52-0.49,2.14c-0.32,0.62-0.78,1.09-1.38,1.43
				c-0.6,0.33-1.29,0.5-2.07,0.5c-0.79,0-1.48-0.17-2.07-0.5c-0.6-0.33-1.06-0.81-1.38-1.43c-0.32-0.62-0.49-1.33-0.49-2.14v-6.79
				c0-0.81,0.16-1.52,0.49-2.14c0.32-0.62,0.78-1.09,1.38-1.43c0.6-0.33,1.29-0.5,2.07-0.5c0.79,0,1.48,0.17,2.07,0.5
				c0.6,0.33,1.05,0.81,1.38,1.43c0.32,0.62,0.49,1.33,0.49,2.14V272.04z"/>
			<path class="st0" d="M206.49,257.87c-1.28-0.71-2.76-1.06-4.44-1.06c-1.68,0-3.16,0.35-4.44,1.06c-1.28,0.71-2.27,1.71-2.97,3
				c-0.7,1.29-1.05,2.79-1.05,4.49v6.57c0,1.7,0.35,3.2,1.05,4.49c0.7,1.29,1.69,2.29,2.97,3c1.28,0.71,2.76,1.06,4.44,1.06
				c1.68,0,3.16-0.35,4.44-1.06c1.28-0.71,2.27-1.71,2.97-3c0.7-1.29,1.05-2.79,1.05-4.49v-6.57c0-1.7-0.35-3.2-1.05-4.49
				C208.76,259.58,207.77,258.58,206.49,257.87z M205.99,272.04c0,0.81-0.16,1.52-0.49,2.14c-0.32,0.62-0.78,1.09-1.38,1.43
				c-0.6,0.33-1.29,0.5-2.07,0.5c-0.79,0-1.48-0.17-2.07-0.5c-0.6-0.33-1.06-0.81-1.38-1.43c-0.32-0.62-0.49-1.33-0.49-2.14v-6.79
				c0-0.81,0.16-1.52,0.49-2.14c0.32-0.62,0.78-1.09,1.38-1.43c0.6-0.33,1.29-0.5,2.07-0.5c0.79,0,1.48,0.17,2.07,0.5
				c0.6,0.33,1.05,0.81,1.38,1.43c0.32,0.62,0.49,1.33,0.49,2.14V272.04z"/>
			<path class="st0" d="M227.44,258.02c-1.37-0.65-3.02-0.97-4.95-0.97h-3.3h-2.17h-2.2v23.19h2.2h2.17h3.29
				c1.99,0,3.67-0.35,5.04-1.04c1.37-0.69,2.4-1.66,3.09-2.9c0.69-1.24,1.03-2.7,1.03-4.37v-6.57c0-1.75-0.36-3.25-1.07-4.5
				C229.85,259.62,228.81,258.67,227.44,258.02z M227.1,272.06c0,1.27-0.39,2.24-1.18,2.94c-0.79,0.69-1.9,1.04-3.33,1.04h-3.4
				v-14.77h3.4c1.44,0,2.55,0.35,3.33,1.04c0.79,0.69,1.18,1.67,1.18,2.94V272.06z"/>
			<path class="st0" d="M250.76,269.69c-0.66-0.91-1.48-1.57-2.46-1.98c-0.98-0.41-2.21-0.76-3.68-1.04
				c-0.06-0.01-0.13-0.02-0.18-0.04s-0.12-0.03-0.18-0.04c-0.04-0.01-0.09-0.02-0.13-0.02c-0.04-0.01-0.09-0.01-0.13-0.02
				c-1.02-0.2-1.81-0.39-2.38-0.57c-0.56-0.18-1.04-0.46-1.42-0.85c-0.38-0.39-0.57-0.92-0.57-1.59v-0.02c0-0.8,0.37-1.42,1.1-1.86
				c0.73-0.44,1.77-0.66,3.11-0.66c0.89,0,1.83,0.17,2.8,0.51c0.97,0.34,1.91,0.82,2.8,1.43l1.85-3.7
				c-0.74-0.51-1.53-0.95-2.36-1.31c-0.83-0.36-1.68-0.64-2.54-0.83c-0.87-0.19-1.71-0.29-2.54-0.29c-1.81,0-3.35,0.28-4.63,0.84
				c-1.28,0.56-2.25,1.37-2.92,2.43s-1,2.34-1,3.84v0.02c0,1.69,0.36,3,1.07,3.92c0.71,0.92,1.58,1.56,2.6,1.93
				c1.02,0.37,2.31,0.67,3.86,0.92l0.35,0.05c0.03,0.01,0.06,0.02,0.09,0.02c0.03,0,0.06,0.01,0.09,0.02
				c0.88,0.14,1.6,0.29,2.17,0.46c0.56,0.17,1.02,0.44,1.37,0.8c0.35,0.36,0.53,0.85,0.53,1.47v0.02c0,0.88-0.39,1.57-1.18,2.05
				c-0.79,0.48-1.89,0.73-3.32,0.73c-1.23,0-2.44-0.2-3.61-0.6c-1.17-0.4-2.2-0.96-3.09-1.7l-2.03,3.6c0.73,0.61,1.57,1.12,2.5,1.55
				s1.92,0.76,2.98,0.98c1.06,0.22,2.14,0.33,3.25,0.33c1.86,0,3.45-0.28,4.78-0.83c1.32-0.55,2.33-1.36,3.02-2.41
				c0.69-1.05,1.04-2.32,1.04-3.8v-0.03C251.74,271.84,251.41,270.6,250.76,269.69z"/>
		</g>
		<g>
			<g>
				<g>
					<g>
						<g>
							<path class="st0" d="M227.15,250.14c-1.6,0-3.11-0.64-4.16-1.75c-0.95-1.01-1.43-2.31-1.35-3.65l2.1-35.28
								c-8.93-35.28,0.48-43.56,4.95-45.48c0.24-0.1,0.5-0.17,0.77-0.18c0,0,0.01,0,0.01,0c0.69,0,1.26,0.24,1.67,0.67
								c0.42,0.43,0.64,1,0.62,1.6l-1.16,43.22l1.98,30.65V240l0.31,4.72c0.09,1.34-0.38,2.64-1.34,3.66
								c-1.05,1.12-2.57,1.76-4.17,1.76H227.15z"/>
							<path class="st4" d="M229.57,165.3c0.38,0,0.72,0.31,0.71,0.73l-1.17,43.29l1.67,25.79l0.03,0.42l0.02,0.34l0.04,0.6
								l0.05,0.71l0.01,0.11l0.04,0.65l0.02,0.3l0.05,0.82l0.01,0.2l0.05,0.74l0,0l0.09,1.33l0.05,0.74l0.18,2.75
								c0.14,2.07-1.69,3.82-4,3.82h-0.25c-2.3,0-4.13-1.74-4.01-3.81l0.17-2.78l0.04-0.73l0.08-1.34l0-0.02l0.04-0.71l0.01-0.24
								l0.05-0.81l0.02-0.28l0.04-0.66l0-0.08l0.04-0.73l0.04-0.59l0.02-0.35l0.02-0.39l1.51-25.39l0.02-0.41
								c-8.98-35.27,0.73-42.54,4.03-43.96c0.08-0.04,0.17-0.05,0.25-0.06C229.55,165.3,229.56,165.3,229.57,165.3 M229.57,162.3
								h-0.06l-0.09,0c-0.46,0.02-0.9,0.12-1.32,0.3c-4.81,2.07-14.97,10.78-5.86,47l-1.51,25.33l-0.02,0.4l-0.02,0.35l-0.04,0.59
								l-0.04,0.73l0,0.08l-0.04,0.66l-0.02,0.28l-0.05,0.82l-0.01,0.23l-0.04,0.71l-0.08,1.36l-0.04,0.73l-0.17,2.78
								c-0.11,1.75,0.51,3.45,1.75,4.76c1.33,1.41,3.24,2.22,5.25,2.22h0.25c2.01,0,3.93-0.82,5.26-2.24
								c1.24-1.32,1.85-3.02,1.74-4.79l-0.18-2.75l-0.05-0.74l-0.09-1.33l-0.05-0.75l-0.01-0.2l-0.05-0.82l-0.02-0.3l-0.04-0.65
								l-0.01-0.11l-0.05-0.71l-0.04-0.6l-0.02-0.34l-0.03-0.42l-1.66-25.65l1.16-43.15c0.03-1.01-0.35-1.96-1.05-2.68
								C231.54,162.71,230.57,162.3,229.57,162.3L229.57,162.3z"/>
						</g>
					</g>
					<g>
						<g>
							<path class="st0" d="M223.81,209.69c-9.03-35.48,0.41-43.78,4.89-45.71c0.24-0.11,0.51-0.17,0.78-0.18l1.6-0.07l-1.14,43.73
								l-0.25,0.37c-0.12,0.17-1.2,1.66-3.81,2.85l-1.63,0.75L223.81,209.69z"/>
							<path class="st4" d="M229.55,165.3l-1.08,41.68c0,0-0.89,1.29-3.2,2.34c-8.98-35.27,0.73-42.54,4.03-43.96
								C229.38,165.33,229.46,165.31,229.55,165.3 M232.63,162.17l-3.21,0.13c-0.45,0.02-0.9,0.12-1.31,0.3
								c-4.83,2.08-15.06,10.86-5.75,47.46l0.89,3.48l3.27-1.49c2.91-1.33,4.19-3.03,4.41-3.36l0.51-0.74l0.02-0.9l1.08-41.68
								L232.63,162.17L232.63,162.17z"/>
						</g>
					</g>
					<g>
						<g>
							<polygon class="st0" points="225.02,211.28 223.79,211.54 223.79,210.32 223.23,209.89 223.5,209.25 222.98,208.83 
								223.24,208.21 222.72,207.78 222.99,207.16 222.47,206.72 222.74,206.11 222.22,205.67 222.5,205.05 221.99,204.61 
								222.27,204 221.76,203.55 222.05,202.94 221.54,202.49 221.83,201.88 221.33,201.43 221.62,200.82 221.12,200.36 
								221.43,199.75 220.92,199.29 221.24,198.69 220.74,198.22 221.06,197.62 220.56,197.15 220.89,196.55 220.4,196.07 
								220.73,195.48 220.24,195 220.58,194.4 220.1,193.92 220.44,193.32 219.97,192.83 220.32,192.24 219.85,191.74 
								220.21,191.16 219.75,190.66 220.11,190.07 219.66,189.56 220.03,188.98 219.58,188.46 219.96,187.89 219.52,187.36 
								219.91,186.79 219.48,186.25 219.88,185.69 219.46,185.14 219.87,184.59 219.45,184.04 219.88,183.49 219.47,182.92 
								219.91,182.38 219.51,181.81 219.96,181.28 219.58,180.69 220.04,180.17 219.67,179.58 220.16,179.06 219.8,178.46 
								220.3,177.96 219.96,177.33 220.47,176.85 220.15,176.21 220.69,175.74 220.39,175.09 220.94,174.63 220.67,173.97 
								221.24,173.53 220.99,172.85 221.6,172.44 221.38,171.74 222,171.35 221.82,170.64 222.48,170.28 222.34,169.55 
								223.02,169.23 222.93,168.48 223.64,168.21 223.6,167.44 224.35,167.23 224.37,166.45 225.14,166.3 225.24,165.51 
								226.04,165.43 226.22,164.64 227.04,164.66 227.32,163.88 228.14,163.99 228.6,163.1 231.51,164.59 229.99,167.54 
								229.5,167.48 229.33,167.95 228.81,167.95 228.69,168.46 228.16,168.51 228.09,169.04 227.55,169.15 227.53,169.71 
								226.99,169.86 227.02,170.43 226.49,170.63 226.56,171.2 226.03,171.45 226.14,172.02 225.62,172.3 225.77,172.88 
								225.25,173.19 225.43,173.77 224.93,174.11 225.14,174.68 224.65,175.05 224.89,175.62 224.41,176.01 224.67,176.58 
								224.21,176.99 224.49,177.55 224.03,177.98 224.33,178.53 223.89,178.98 224.21,179.52 223.78,179.98 224.11,180.52 
								223.69,181 224.04,181.53 223.62,182.01 223.99,182.54 223.58,183.04 223.96,183.56 223.56,184.07 223.95,184.58 
								223.57,185.1 223.96,185.61 223.59,186.13 223.99,186.64 223.62,187.17 224.04,187.67 223.68,188.21 224.1,188.7 
								223.75,189.25 224.18,189.74 223.84,190.29 224.28,190.77 223.94,191.33 224.38,191.8 224.05,192.36 224.5,192.84 
								224.17,193.4 224.63,193.87 224.31,194.44 224.78,194.9 224.46,195.47 224.93,195.93 224.62,196.51 225.09,196.96 
								224.79,197.54 225.27,197.99 224.97,198.57 225.45,199.02 225.15,199.61 225.64,200.05 225.35,200.64 225.84,201.08 
								225.56,201.67 226.05,202.11 225.77,202.7 226.27,203.13 225.99,203.73 226.5,204.16 226.22,204.76 226.73,205.19 
								226.46,205.79 226.97,206.21 226.71,206.82 227.22,207.23 226.99,207.77 226.99,207.87 227.47,208.26 227.06,209.24 
								227.06,212.86 							"/>
							<path class="st4" d="M229.25,165.12l0.24,0.12l-0.35,0.67l-0.65-0.09l-0.22,0.62l-0.66-0.01l-0.15,0.64l-0.65,0.06
								l-0.08,0.65l-0.65,0.13l-0.02,0.66l-0.63,0.18l0.03,0.66l-0.62,0.23l0.08,0.66l-0.6,0.28l0.12,0.65l-0.58,0.31l0.16,0.64
								l-0.56,0.35l0.2,0.63l-0.55,0.37l0.23,0.62l-0.53,0.4l0.25,0.61l-0.51,0.42l0.28,0.6l-0.5,0.44l0.3,0.59l-0.48,0.46
								l0.32,0.58l-0.47,0.47l0.34,0.57l-0.46,0.48l0.35,0.56l-0.44,0.5l0.37,0.56l-0.43,0.51l0.38,0.55l-0.42,0.52l0.39,0.54
								l-0.41,0.53l0.4,0.53l-0.4,0.53l0.41,0.53l-0.39,0.54l0.42,0.52l-0.38,0.55l0.43,0.51l-0.37,0.56l0.44,0.51l-0.36,0.56
								l0.44,0.5l-0.36,0.57l0.45,0.49l-0.35,0.57l0.46,0.49l-0.34,0.57l0.46,0.48l-0.33,0.58l0.47,0.48l-0.33,0.58l0.47,0.47
								l-0.32,0.58l0.48,0.47l-0.32,0.59l0.48,0.46l-0.31,0.59l0.49,0.46l-0.3,0.59l0.49,0.45l-0.3,0.6l0.49,0.45l-0.29,0.6
								l0.5,0.44l-0.29,0.6l0.5,0.44l-0.28,0.6l0.51,0.44l-0.28,0.61l0.51,0.43l-0.28,0.61l0.51,0.43l-0.27,0.61l0.52,0.43
								l-0.27,0.61l0.52,0.42l-0.26,0.61l0.52,0.42l-0.17,0.41h0.08v0.68l-0.17-0.13l-0.1,0.02v-0.1l-0.22-0.17l0.26-0.62
								l-0.52-0.42l0.26-0.62l-0.52-0.42l0.27-0.61l-0.52-0.43l0.27-0.61l-0.51-0.43l0.28-0.61l-0.51-0.43l0.28-0.61l-0.51-0.44
								l0.29-0.61l-0.5-0.44l0.29-0.6l-0.5-0.45l0.3-0.6l-0.5-0.45l0.3-0.6l-0.49-0.45l0.31-0.6l-0.49-0.46l0.31-0.59l-0.48-0.46
								l0.32-0.59l-0.48-0.47l0.32-0.59l-0.47-0.47l0.33-0.58l-0.47-0.48l0.34-0.58l-0.46-0.48l0.34-0.58l-0.46-0.49l0.35-0.57
								l-0.45-0.49l0.36-0.57l-0.45-0.5l0.36-0.56l-0.44-0.51l0.37-0.56l-0.43-0.51l0.38-0.55l-0.42-0.52l0.39-0.55l-0.41-0.53
								l0.4-0.54l-0.4-0.54l0.41-0.53l-0.39-0.54l0.42-0.52l-0.38-0.55l0.43-0.51l-0.37-0.56l0.45-0.5l-0.35-0.57l0.46-0.49
								l-0.34-0.58l0.47-0.48l-0.32-0.59l0.49-0.46l-0.3-0.6l0.5-0.45l-0.28-0.61l0.52-0.43l-0.26-0.62l0.54-0.4l-0.23-0.63
								l0.56-0.38l-0.2-0.64l0.57-0.35l-0.17-0.65l0.59-0.32l-0.13-0.66l0.61-0.28l-0.08-0.67l0.63-0.24l-0.03-0.67l0.65-0.19
								l0.02-0.68l0.66-0.13l0.09-0.67l0.67-0.06l0.15-0.66l0.68,0.01l0.23-0.64l0.67,0.09L229.25,165.12 M227.96,161.08l-0.66,1.28
								l-0.98-0.14l-0.33,0.92l-0.95-0.01l-0.21,0.91l-0.92,0.09l-0.11,0.91l-0.88,0.17l-0.03,0.88l-0.84,0.24l0.04,0.86l-0.8,0.3
								l0.1,0.84l-0.75,0.35l0.16,0.81l-0.72,0.39l0.2,0.78l-0.68,0.42l0.24,0.75l-0.65,0.44l0.27,0.73l-0.62,0.47l0.3,0.71
								l-0.59,0.48l0.32,0.69l-0.56,0.5l0.34,0.67l-0.54,0.52l0.36,0.65l-0.52,0.53l0.37,0.64l-0.5,0.54l0.39,0.62l-0.49,0.54
								l0.4,0.61l-0.47,0.55l0.41,0.59l-0.45,0.56l0.42,0.58l-0.44,0.57l0.43,0.57l-0.43,0.57l0.44,0.56l-0.42,0.58l0.45,0.55
								l-0.4,0.58l0.45,0.54l-0.39,0.59l0.46,0.54l-0.38,0.59l0.47,0.53l-0.38,0.6l0.47,0.51l-0.36,0.6l0.48,0.51l-0.36,0.6
								l0.48,0.5l-0.35,0.6l0.49,0.5l-0.34,0.6l0.49,0.49l-0.33,0.61l0.5,0.48l-0.33,0.61l0.5,0.48l-0.32,0.61l0.51,0.47l-0.32,0.61
								l0.51,0.47l-0.31,0.62l0.51,0.46l-0.3,0.62l0.51,0.46l-0.3,0.62l0.52,0.45l-0.29,0.62l0.52,0.45l-0.29,0.62l0.52,0.44
								l-0.28,0.63l0.53,0.44l-0.28,0.63l0.53,0.44l-0.27,0.63l0.53,0.43l-0.27,0.63l0.53,0.43l-0.28,0.66l0.88,0.69v2.35l2.37-0.51
								l3.9,3.03v-6.13v-0.25l0.74-1.74l-0.51-0.41l0.26-0.6l-0.48-0.4v-0.06l0.24-0.55l-0.5-0.42l0.26-0.6l-0.5-0.42l0.27-0.59
								l-0.5-0.42l0.27-0.59l-0.49-0.43l0.28-0.59l-0.49-0.43l0.28-0.59l-0.49-0.43l0.29-0.58l-0.48-0.43l0.29-0.58l-0.48-0.44
								l0.3-0.58l-0.47-0.44l0.3-0.57l-0.47-0.45l0.31-0.57l-0.46-0.45l0.31-0.56l-0.45-0.45l0.32-0.56l-0.45-0.46l0.32-0.55
								l-0.44-0.46l0.33-0.55l-0.44-0.46l0.33-0.54l-0.43-0.47l0.34-0.54l-0.42-0.48l0.35-0.53l-0.41-0.48l0.35-0.53l-0.4-0.48
								l0.36-0.52l-0.4-0.49l0.37-0.51l-0.38-0.49l0.37-0.5l-0.37-0.5l0.38-0.49l-0.36-0.5l0.39-0.48l-0.35-0.5l0.4-0.47l-0.33-0.51
								l0.4-0.45l-0.32-0.51l0.41-0.44l-0.3-0.52l0.42-0.42l-0.28-0.52l0.43-0.41l-0.26-0.52l0.44-0.39l-0.24-0.52l0.44-0.36
								l-0.22-0.52l0.45-0.34l-0.19-0.52l0.45-0.31l-0.16-0.52l0.46-0.28l-0.13-0.51l0.46-0.25l-0.1-0.5l0.46-0.21l-0.06-0.49
								l0.45-0.17l-0.02-0.47l0.44-0.13l0.02-0.45l0.43-0.09l0.05-0.42l0.41-0.04l0.09-0.39l0.38,0l0.12-0.34l0.34,0.05l0.97-1.89
								l0.35-0.67l1.37-2.67l-2.67-1.37l-0.24-0.12L227.96,161.08L227.96,161.08z"/>
						</g>
					</g>
				</g>
				<g>
					<g>
						<path class="st0" d="M245.47,250.14c-1.6,0-3.12-0.64-4.17-1.76c-0.96-1.02-1.44-2.32-1.35-3.66l3.01-50.54
							c0.03-1.01-0.44-2.03-1.25-2.68c-1.31-1.04-2.38-2.61-3.11-4.55c-0.6-1.58-0.9-3.26-0.9-4.99l0-0.11l1.23-16.44
							c0.06-0.9,0.82-1.6,1.73-1.6c0.77,0,1.41,0.47,1.65,1.12c0.22-0.6,0.77-1.04,1.44-1.11l0.08-0.01l0.11,0
							c0.69,0,1.27,0.35,1.57,0.87c0.3-0.52,0.86-0.87,1.5-0.87h0.14c0.68,0,1.27,0.39,1.55,0.96c0.28-0.57,0.87-0.96,1.55-0.96
							c0.9,0,1.66,0.7,1.73,1.6l1.27,16.5v0.06c0,1.73-0.3,3.41-0.9,4.99c-0.73,1.94-1.81,3.51-3.11,4.55
							c-0.82,0.65-1.29,1.67-1.25,2.73l3.26,50.48c0.09,1.35-0.39,2.65-1.34,3.68c-1.05,1.12-2.58,1.77-4.18,1.77H245.47z"/>
						<path class="st4" d="M250.25,165.3c0.12,0,0.22,0.09,0.23,0.22l1.26,16.44c0,1.52-0.26,3.03-0.8,4.46
							c-0.63,1.67-1.55,3.03-2.64,3.91c-1.2,0.95-1.86,2.42-1.82,3.94l2.64,40.85l0.03,0.45l0.02,0.29l0.04,0.66l0.04,0.68
							l0.01,0.14l0.04,0.59l0.02,0.35l0.05,0.82l0.01,0.17l0.05,0.72l0,0.05l0.08,1.3l0.05,0.71l0.18,2.74
							c0.14,2.09-1.7,3.85-4.03,3.85h-0.25c-2.32,0-4.16-1.75-4.03-3.83l0.17-2.77l0.04-0.69l0.08-1.37l0-0.03l0.04-0.67l0.02-0.27
							l0.05-0.81l0.02-0.28l0.04-0.67l0-0.04l0.05-0.77l0.03-0.58l0.02-0.36l0.02-0.36l2.44-40.86c0.05-1.52-0.62-2.99-1.82-3.94
							c-1.09-0.87-2.01-2.23-2.64-3.91c-0.54-1.42-0.8-2.94-0.8-4.46l1.23-16.44c0.01-0.12,0.11-0.22,0.23-0.22h0.03
							c0.13,0,0.23,0.1,0.23,0.23v16.64c0,0.26,0.11,0.49,0.28,0.66c0.17,0.17,0.4,0.28,0.66,0.28c0.52,0,0.94-0.42,0.94-0.94
							l0.9-16.65c0.01-0.12,0.1-0.21,0.21-0.22c0.01,0,0.02,0,0.03,0H244c0.13,0,0.23,0.1,0.23,0.23l0.29,16.64
							c0,0.52,0.42,0.94,0.94,0.94c0.01,0,0.01,0,0.02,0c0.52-0.01,0.92-0.44,0.92-0.95l0.36-16.63c0-0.13,0.11-0.23,0.23-0.23h0.14
							c0.12,0,0.23,0.1,0.23,0.22l0.76,16.65c0,0.51,0.41,0.93,0.92,0.94c0.01,0,0.01,0,0.02,0c0.52,0,0.94-0.44,0.94-0.96v-16.62
							C250.02,165.4,250.12,165.3,250.25,165.3 M250.25,162.3c-0.56,0-1.09,0.14-1.55,0.4c-0.46-0.25-0.99-0.4-1.56-0.4H247
							c-0.54,0-1.05,0.14-1.5,0.37c-0.45-0.24-0.96-0.37-1.5-0.37h-0.07h-0.19l-0.17,0.02c-0.46,0.05-0.89,0.2-1.27,0.41
							c-0.48-0.28-1.03-0.44-1.62-0.44c-1.72,0-3.13,1.32-3.26,2.99l-1.23,16.44l-0.01,0.11v0.11c0,1.91,0.33,3.77,0.99,5.51
							c0.83,2.19,2.06,3.99,3.58,5.2c0.44,0.35,0.7,0.9,0.69,1.47l-2.43,40.81l-0.02,0.36l-0.02,0.36l-0.03,0.58l-0.05,0.77
							l-0.04,0.71l-0.02,0.28l-0.05,0.81l-0.02,0.27l-0.04,0.67l-0.08,1.4l-0.04,0.69l-0.17,2.77c-0.11,1.76,0.52,3.46,1.76,4.78
							c1.33,1.42,3.25,2.23,5.27,2.23h0.25c2.02,0,3.95-0.82,5.28-2.24c1.24-1.33,1.86-3.03,1.74-4.8l-0.18-2.74l-0.05-0.71
							l-0.08-1.3l0-0.05l-0.05-0.73l-0.01-0.17l-0.05-0.82l-0.02-0.35l-0.04-0.59l-0.01-0.14l-0.04-0.68l-0.04-0.66l-0.02-0.29
							l-0.03-0.45l-2.64-40.79c-0.01-0.57,0.25-1.12,0.69-1.47c1.52-1.21,2.76-3.01,3.58-5.2c0.66-1.75,0.99-3.6,0.99-5.51v-0.12
							l-0.01-0.11l-1.26-16.44C253.35,163.61,251.93,162.3,250.25,162.3L250.25,162.3z"/>
					</g>
					<g>
						<path class="st0" d="M246.08,193.97c-0.06-0.03-0.27-0.11-0.62-0.11s-0.56,0.08-0.62,0.11l-1.54,0.72l-0.52-1.61
							c-0.2-0.63-0.58-1.17-1.09-1.58c-1.31-1.04-2.38-2.61-3.11-4.55c-0.59-1.58-0.9-3.26-0.9-4.99l0-0.11l1.23-16.44
							c0.07-0.9,0.83-1.6,1.73-1.6c0.77,0,1.41,0.47,1.65,1.12c0.22-0.6,0.77-1.04,1.44-1.11l0.08-0.01l0.11,0
							c0.69,0,1.27,0.35,1.57,0.87c0.3-0.52,0.86-0.87,1.5-0.87h0.14c0.68,0,1.27,0.39,1.55,0.96c0.28-0.57,0.87-0.96,1.55-0.96
							c0.9,0,1.66,0.7,1.73,1.6l1.27,16.5v0.06c0,1.73-0.3,3.41-0.9,4.99c-0.73,1.94-1.81,3.51-3.11,4.55
							c-0.51,0.41-0.89,0.95-1.09,1.58l-0.52,1.62L246.08,193.97z"/>
						<path class="st4" d="M250.25,165.3c0.12,0,0.22,0.09,0.23,0.22l1.26,16.44c0,1.52-0.26,3.03-0.8,4.46
							c-0.63,1.67-1.55,3.03-2.64,3.91c-0.75,0.6-1.29,1.4-1.58,2.29c-0.34-0.16-0.77-0.25-1.25-0.25c-0.48,0-0.92,0.1-1.25,0.25
							c-0.29-0.89-0.83-1.69-1.58-2.29c-1.1-0.87-2.01-2.23-2.64-3.91c-0.54-1.42-0.8-2.93-0.8-4.46l1.23-16.44
							c0.01-0.12,0.11-0.22,0.23-0.22h0.03c0.13,0,0.23,0.1,0.23,0.23v16.64c0,0.26,0.11,0.49,0.28,0.66
							c0.17,0.17,0.4,0.28,0.66,0.28c0.52,0,0.94-0.42,0.94-0.94l0.9-16.65c0.01-0.12,0.1-0.21,0.21-0.22c0.01,0,0.02,0,0.03,0H244
							c0.13,0,0.23,0.1,0.23,0.23l0.29,16.64c0,0.52,0.42,0.94,0.94,0.94c0.01,0,0.01,0,0.02,0c0.52-0.01,0.92-0.44,0.92-0.95
							l0.36-16.63c0-0.13,0.11-0.23,0.23-0.23h0.14c0.12,0,0.23,0.1,0.23,0.22l0.76,16.65c0,0.51,0.41,0.93,0.92,0.94
							c0.01,0,0.01,0,0.02,0c0.52,0,0.94-0.44,0.94-0.96v-16.62C250.02,165.4,250.12,165.3,250.25,165.3 M250.25,162.3
							c-0.56,0-1.09,0.14-1.55,0.4c-0.46-0.25-0.99-0.4-1.56-0.4H247c-0.54,0-1.05,0.14-1.5,0.37c-0.45-0.24-0.96-0.37-1.5-0.37
							h-0.07h-0.17l-0.19,0.02c-0.46,0.05-0.89,0.19-1.27,0.41c-0.48-0.28-1.03-0.43-1.62-0.43c-1.72,0-3.13,1.31-3.26,2.99
							l-1.23,16.44l-0.01,0.11v0.11c0,1.91,0.33,3.77,0.99,5.51c0.83,2.19,2.06,3.99,3.58,5.2c0.28,0.22,0.49,0.52,0.6,0.87
							l1.05,3.23l3.01-1.41c0.01,0,0.03,0,0.05,0c0.02,0,0.04,0,0.05,0l3.01,1.41l1.05-3.23c0.11-0.34,0.32-0.64,0.6-0.87
							c1.52-1.21,2.76-3.01,3.58-5.2c0.66-1.75,0.99-3.6,0.99-5.51v-0.12l-0.01-0.11l-1.26-16.44
							C253.34,163.61,251.93,162.3,250.25,162.3L250.25,162.3z"/>
					</g>
					<g class="st17">
						<path class="st0" d="M246.08,193.97c-0.06-0.03-0.27-0.11-0.62-0.11s-0.56,0.08-0.62,0.11l-1.54,0.72l-0.52-1.61
							c-0.2-0.63-0.58-1.17-1.09-1.58c-1.31-1.04-2.38-2.61-3.11-4.55c-0.27-0.71-0.48-1.46-0.63-2.21l-0.14-0.72l0.48-0.55
							c0.54-0.63,1.11-1.25,1.69-1.84l1.34-1.37l0.07,0.11l0.01-0.12l0.46-0.42c0.54-0.48,1.1-0.96,1.68-1.42l2.38-1.9l0,0.15
							c0.38-0.26,0.78-0.52,1.18-0.77l2.17-1.35l0,0.1l0.02-0.01c0.42-0.22,0.84-0.44,1.27-0.65l1.98-0.96l0.68,8.9v0.06
							c0,1.73-0.3,3.41-0.9,4.99c-0.73,1.94-1.81,3.51-3.11,4.55c-0.51,0.41-0.89,0.95-1.09,1.58l-0.52,1.62L246.08,193.97z"/>
						<path class="st4" d="M251.23,175.31l0.51,6.65c0,1.52-0.26,3.03-0.8,4.46c-0.63,1.67-1.55,3.03-2.64,3.91
							c-0.75,0.6-1.29,1.4-1.58,2.29c-0.34-0.16-0.77-0.25-1.25-0.25c-0.48,0-0.92,0.1-1.25,0.25c-0.29-0.89-0.83-1.69-1.58-2.29
							c-1.1-0.87-2.01-2.23-2.64-3.91c-0.24-0.64-0.43-1.3-0.56-1.97c0.51-0.59,1.05-1.18,1.63-1.78c0.04,0.06,0.08,0.12,0.13,0.17
							c0.17,0.17,0.4,0.28,0.66,0.28c0.52,0,0.94-0.42,0.94-0.94l0.07-1.23c0.52-0.46,1.05-0.92,1.62-1.37l0.05,2.6
							c0,0.52,0.42,0.94,0.94,0.94c0.01,0,0.01,0,0.02,0c0.52-0.01,0.92-0.44,0.92-0.95l0.09-4.08c0.46-0.32,0.93-0.62,1.41-0.93
							l0.23,5.02c0,0.51,0.41,0.93,0.92,0.94c0.01,0,0.01,0,0.02,0c0.52,0,0.94-0.44,0.94-0.96v-6.22
							C250.41,175.72,250.82,175.51,251.23,175.31 M253.89,170.69l-3.2,1.55l-0.02-0.35l-3.23,2.02l-0.05,0.03l-0.01-0.51l-3.7,2.95
							l-0.15,0.1l0,0.02l-0.92,0.73c-0.31,0.25-0.62,0.5-0.93,0.76l-0.1-0.15l-2.68,2.74c-0.6,0.61-1.19,1.26-1.76,1.91l-0.95,1.11
							l0.28,1.43c0.16,0.84,0.4,1.66,0.7,2.45c0.83,2.19,2.06,3.99,3.58,5.2c0.28,0.22,0.49,0.52,0.6,0.87l1.05,3.23l3.01-1.41
							c0.01,0,0.03,0,0.05,0c0.02,0,0.04,0,0.05,0l3.01,1.41l1.05-3.23c0.11-0.34,0.32-0.64,0.6-0.87c1.52-1.21,2.76-3.01,3.58-5.2
							c0.66-1.75,0.99-3.6,0.99-5.51v-0.12l-0.01-0.11l-0.51-6.65L253.89,170.69L253.89,170.69z"/>
					</g>
				</g>
				<g>
					<g>
						<path class="st0" d="M166.37,250.14c-1.02,0-2.05-0.04-3.06-0.12l-1.39-0.1v-4.48l1.39-0.1c12.45-0.89,24-9.5,28.1-20.95
							c1.33-3.62,1.98-7.52,1.86-11.28c-0.06-1.57-0.25-3.78-0.41-5.74c-0.09-1.1-0.19-2.15-0.25-3.04l0.04,0
							c-0.07-0.39-0.11-0.87-0.15-1.42l-0.77-9.39h16.95l-0.88,10.83c-0.09,0.95-0.17,2.01-0.25,3.1c-0.18,2.28-0.36,4.64-0.62,6.55
							c-0.56,4.01-1.69,7.95-3.36,11.69c-5.56,12.51-17.21,21.65-30.4,23.87C170.93,249.95,168.64,250.14,166.37,250.14z"/>
						<path class="st4" d="M207.06,195.03l-0.75,9.21c-0.26,2.84-0.48,6.79-0.86,9.57c-0.54,3.92-1.65,7.71-3.24,11.28
							c-5.29,11.89-16.56,20.86-29.28,23c-2.18,0.37-4.38,0.55-6.56,0.55c-0.99,0-1.97-0.04-2.95-0.11v-1.69
							c12.97-0.93,25.05-9.77,29.41-21.94c1.39-3.76,2.07-7.86,1.95-11.83c-0.09-2.48-0.49-6.33-0.67-8.84c0,0-0.75-9.21-0.75-9.21
							H207.06 M210.31,192.03h-3.25h-13.7h-3.25l0.26,3.24l0.38,4.6l0.26,3.17l0.09,1.04c0.01,0.13,0.02,0.25,0.04,0.36l-0.01,0
							c0.06,0.89,0.15,1.95,0.25,3.06c0.17,1.94,0.36,4.14,0.41,5.67c0.11,3.55-0.5,7.25-1.77,10.68
							c-3.92,10.93-14.94,19.13-26.81,19.98l-2.79,0.2v2.79v1.69v2.78l2.77,0.21c1.05,0.08,2.12,0.12,3.18,0.12
							c2.36,0,4.73-0.2,7.06-0.59c13.68-2.3,25.76-11.78,31.52-24.74c1.73-3.87,2.9-7.94,3.47-12.09c0.27-1.95,0.45-4.34,0.63-6.64
							c0.08-1.09,0.16-2.14,0.25-3.07l0.75-9.24L210.31,192.03L210.31,192.03z"/>
					</g>
					<g>
						<g class="st18">
							<path class="st19" d="M178.69,225.62c-16.82,0-30.5-13.68-30.5-30.5c0-9.39,4.23-18.12,11.62-23.95
								c5.43-4.28,11.96-6.55,18.88-6.55c16.82,0,30.5,13.68,30.5,30.5c0,10.74-5.48,20.48-14.67,26.07
								C189.76,224.09,184.29,225.62,178.69,225.62z"/>
							<path class="st4" d="M178.69,166.12c16.02,0,29,12.98,29,29c0,10.5-5.58,19.7-13.95,24.79c-4.39,2.67-9.54,4.21-15.05,4.21
								c-16.02,0-29-12.98-29-29c0-9.24,4.32-17.46,11.05-22.77C165.67,168.45,171.91,166.12,178.69,166.12 M178.69,163.12
								c-7.27,0-14.12,2.38-19.81,6.87c-7.74,6.11-12.19,15.27-12.19,25.13c0,17.64,14.35,32,32,32c5.87,0,11.62-1.61,16.61-4.64
								c9.64-5.86,15.39-16.09,15.39-27.35C210.69,177.48,196.33,163.12,178.69,163.12L178.69,163.12z"/>
						</g>
						<g>
							<g>
								<g>
									<path class="st3" d="M178.33,224.81c-16.82,0-30.5-13.68-30.5-30.5c0-9.4,4.23-18.12,11.62-23.95
										c5.43-4.28,11.96-6.55,18.88-6.55c16.82,0,30.5,13.68,30.5,30.5c0,10.74-5.48,20.48-14.67,26.07
										C189.4,223.28,183.92,224.81,178.33,224.81z"/>
									<path class="st4" d="M178.33,165.31c16.02,0,29,12.98,29,29c0,10.5-5.58,19.7-13.95,24.79c-4.39,2.67-9.54,4.21-15.05,4.21
										c-16.02,0-29-12.98-29-29c0-9.24,4.32-17.46,11.05-22.77C165.31,167.64,171.55,165.31,178.33,165.31 M178.33,162.31
										c-7.27,0-14.12,2.38-19.81,6.87c-7.74,6.11-12.19,15.27-12.19,25.13c0,17.64,14.35,32,32,32c5.87,0,11.62-1.61,16.61-4.64
										c9.64-5.86,15.39-16.09,15.39-27.35C210.32,176.67,195.97,162.31,178.33,162.31L178.33,162.31z"/>
								</g>
								<g>
									<path class="st0" d="M178.33,224.46c-16.63,0-30.15-13.53-30.15-30.15s13.53-30.15,30.15-30.15s30.15,13.53,30.15,30.15
										S194.95,224.46,178.33,224.46z"/>
									<path class="st4" d="M178.33,165.66c15.83,0,28.65,12.83,28.65,28.65c0,15.83-12.83,28.65-28.65,28.65
										c-15.83,0-28.65-12.83-28.65-28.65C149.67,178.49,162.5,165.66,178.33,165.66 M178.33,162.66
										c-17.45,0-31.65,14.2-31.65,31.65s14.2,31.65,31.65,31.65c17.45,0,31.65-14.2,31.65-31.65S195.78,162.66,178.33,162.66
										L178.33,162.66z"/>
								</g>
								<g>
									<circle class="st4" cx="178.33" cy="194.73" r="20.51"/>
									<path class="st4" d="M178.33,175.72c10.5,0,19.01,8.51,19.01,19.01c0,10.5-8.51,19.01-19.01,19.01
										c-10.5,0-19.01-8.51-19.01-19.01C159.31,184.23,167.82,175.72,178.33,175.72 M178.33,172.72
										c-12.14,0-22.01,9.88-22.01,22.01s9.88,22.01,22.01,22.01s22.01-9.88,22.01-22.01S190.46,172.72,178.33,172.72
										L178.33,172.72z"/>
								</g>
								<g>
									<linearGradient id="SVGID_1_" gradientUnits="userSpaceOnUse" x1="178.3251" y1="173.9255" x2="178.3251" y2="214.6212">
										<stop  offset="0" style="stop-color:#D1181F"/>
										<stop  offset="0.9946" style="stop-color:#F3F3F3"/>
									</linearGradient>
									<path class="st5" d="M178.33,214.84c-11.31,0-20.51-9.2-20.51-20.51c0-11.31,9.2-20.51,20.51-20.51s20.51,9.2,20.51,20.51
										C198.84,205.64,189.64,214.84,178.33,214.84z"/>
									<path class="st4" d="M178.33,175.31c10.5,0,19.01,8.51,19.01,19.01c0,10.5-8.51,19.01-19.01,19.01
										c-10.5,0-19.01-8.51-19.01-19.01C159.31,183.83,167.82,175.31,178.33,175.31 M178.33,172.31
										c-12.14,0-22.01,9.88-22.01,22.01s9.88,22.01,22.01,22.01s22.01-9.88,22.01-22.01S190.46,172.31,178.33,172.31
										L178.33,172.31z"/>
								</g>
								<g>
									<circle class="st0" cx="178.33" cy="194.33" r="16.79"/>
									<path class="st4" d="M178.33,179.04c8.44,0,15.29,6.85,15.29,15.29c0,8.44-6.85,15.29-15.29,15.29s-15.29-6.85-15.29-15.29
										C163.04,185.88,169.88,179.04,178.33,179.04 M178.33,176.04c-10.08,0-18.29,8.2-18.29,18.29s8.2,18.29,18.29,18.29
										c10.08,0,18.29-8.2,18.29-18.29S188.41,176.04,178.33,176.04L178.33,176.04z"/>
								</g>
							</g>
							<g class="st21">
								<path class="st4" d="M191.85,218.88c-0.35-3.33-1.01-6.63-1.98-9.82l-0.09-0.3c-0.39-1.27-0.85-2.55-1.34-3.8
									c-3.44-8.67-9.18-16.6-17.08-23.57c-0.89-0.79-1.83-1.57-2.77-2.33l-0.3-0.24c-3.37-2.68-6.41-4.63-8.36-5.79l-2.12-1.25
									l1.64-1.4c5.43-4.28,11.96-6.55,18.88-6.55c16.82,0,30.5,13.68,30.5,30.5c0,10.74-5.48,20.48-14.67,26.07l-2.04,1.24
									L191.85,218.88z"/>
								<path class="st4" d="M178.33,165.31c16.02,0,29,12.98,29,29c0,10.5-5.58,19.7-13.95,24.79c-0.01-0.13-0.02-0.25-0.04-0.38
									c-0.37-3.57-1.07-6.93-2.03-10.1c-0.03-0.1-0.06-0.21-0.1-0.31c-0.42-1.34-0.88-2.65-1.38-3.91
									c-4.16-10.49-11.08-18.49-17.48-24.15c-0.96-0.85-1.9-1.64-2.83-2.38c-0.1-0.08-0.2-0.16-0.3-0.24
									c-3.33-2.64-6.35-4.61-8.53-5.91c-0.11-0.06-0.21-0.13-0.32-0.19C165.31,167.64,171.55,165.31,178.33,165.31 M178.33,162.31
									c-7.27,0-14.12,2.38-19.81,6.87l-3.44,2.72l3.78,2.22l0.31,0.18c1.91,1.14,4.89,3.05,8.2,5.68l0.29,0.23
									c0.93,0.74,1.84,1.51,2.72,2.29c7.72,6.82,13.33,14.56,16.68,23c0.48,1.21,0.92,2.46,1.3,3.7l0.09,0.3
									c0.94,3.09,1.58,6.3,1.92,9.54l0.04,0.36l0.46,4.77l4.09-2.49c9.63-5.86,15.39-16.09,15.39-27.35
									C210.32,176.67,195.97,162.31,178.33,162.31L178.33,162.31z"/>
							</g>
						</g>
					</g>
				</g>
			</g>
			<g>
				<g>
					<g>
						<path class="st0" d="M227.41,248.64h-0.25c-2.3,0-4.13-1.74-4.01-3.81l0.17-2.78l0.04-0.73l0.08-1.34l0-0.02l0.04-0.71
							l0.01-0.24l0.05-0.81l0.02-0.28l0.04-0.66l0-0.08l0.04-0.73l0.04-0.59l0.02-0.35l0.02-0.39l1.51-25.39l0.02-0.41
							c-8.98-35.27,0.73-42.54,4.03-43.96c0.08-0.04,0.17-0.05,0.25-0.06c0.39-0.02,0.75,0.3,0.74,0.73l-1.17,43.29l1.67,25.79
							l0.03,0.42l0.02,0.34l0.04,0.6l0.05,0.71l0.01,0.11l0.04,0.65l0.02,0.3l0.05,0.82l0.01,0.2l0.05,0.74l0,0l0.09,1.33l0.05,0.74
							l0.18,2.75C231.55,246.89,229.72,248.64,227.41,248.64z"/>
					</g>
					<g>
						<path class="st0" d="M229.55,165.3l-1.08,41.68c0,0-0.89,1.29-3.2,2.34l0,0c-8.98-35.27,0.73-42.54,4.03-43.96
							C229.38,165.33,229.46,165.31,229.55,165.3z"/>
					</g>
					<g>
						<polygon class="st0" points="225.56,209.8 225.39,209.67 225.29,209.69 225.29,209.59 225.06,209.42 225.32,208.8 
							224.8,208.38 225.07,207.76 224.55,207.34 224.82,206.72 224.3,206.3 224.57,205.68 224.06,205.25 224.34,204.64 
							223.83,204.21 224.11,203.6 223.6,203.16 223.89,202.56 223.38,202.11 223.67,201.51 223.17,201.07 223.47,200.46 
							222.97,200.01 223.27,199.42 222.78,198.96 223.09,198.37 222.6,197.91 222.91,197.32 222.42,196.85 222.74,196.26 
							222.26,195.8 222.58,195.21 222.11,194.74 222.44,194.16 221.97,193.68 222.31,193.1 221.84,192.62 222.18,192.04 
							221.73,191.55 222.08,190.98 221.62,190.49 221.98,189.92 221.54,189.42 221.9,188.85 221.46,188.34 221.84,187.79 
							221.4,187.27 221.79,186.72 221.36,186.2 221.76,185.65 221.34,185.12 221.74,184.59 221.34,184.05 221.75,183.52 
							221.36,182.98 221.78,182.46 221.4,181.9 221.83,181.39 221.47,180.83 221.91,180.33 221.56,179.76 222.02,179.27 
							221.68,178.7 222.15,178.22 221.83,177.63 222.32,177.17 222.01,176.57 222.52,176.12 222.24,175.51 222.75,175.09 
							222.5,174.47 223.03,174.06 222.8,173.43 223.36,173.05 223.16,172.41 223.73,172.06 223.56,171.4 224.16,171.08 
							224.03,170.42 224.64,170.14 224.56,169.47 225.19,169.23 225.16,168.55 225.81,168.37 225.83,167.69 226.5,167.56 
							226.58,166.89 227.25,166.82 227.41,166.16 228.09,166.17 228.32,165.53 228.99,165.62 229.25,165.12 229.49,165.24 
							229.14,165.91 228.5,165.82 228.28,166.44 227.62,166.43 227.47,167.07 226.82,167.13 226.74,167.78 226.09,167.91 
							226.07,168.57 225.44,168.75 225.47,169.41 224.85,169.64 224.93,170.3 224.33,170.57 224.46,171.22 223.87,171.54 
							224.04,172.18 223.47,172.53 223.67,173.16 223.12,173.53 223.35,174.16 222.82,174.55 223.08,175.17 222.56,175.59 
							222.84,176.19 222.34,176.63 222.64,177.22 222.16,177.68 222.48,178.27 222.01,178.74 222.35,179.31 221.89,179.8 
							222.24,180.36 221.8,180.86 222.17,181.41 221.74,181.92 222.11,182.47 221.7,182.99 222.09,183.53 221.68,184.05 
							222.08,184.58 221.68,185.12 222.09,185.65 221.7,186.19 222.12,186.71 221.74,187.26 222.17,187.77 221.8,188.32 
							222.23,188.83 221.87,189.39 222.31,189.89 221.96,190.46 222.41,190.95 222.06,191.52 222.52,192.01 222.18,192.58 
							222.64,193.06 222.3,193.64 222.77,194.11 222.44,194.69 222.92,195.16 222.59,195.75 223.07,196.21 222.76,196.8 
							223.24,197.26 222.93,197.85 223.42,198.31 223.11,198.9 223.6,199.36 223.3,199.95 223.8,200.4 223.5,201 224,201.45 
							223.71,202.05 224.21,202.49 223.93,203.09 224.43,203.53 224.15,204.14 224.66,204.57 224.39,205.18 224.9,205.61 
							224.63,206.22 225.14,206.64 224.87,207.26 225.39,207.68 225.13,208.3 225.65,208.72 225.48,209.12 225.56,209.12 						"/>
					</g>
				</g>
				<g>
					<path class="st0" d="M246.48,194.27l2.64,40.85l0.03,0.45l0.02,0.29l0.04,0.66l0.04,0.68l0.01,0.14l0.04,0.59l0.02,0.35
						l0.05,0.82l0.01,0.17l0.05,0.72l0,0.05l0.08,1.3l0.05,0.71l0.18,2.74c0.14,2.09-1.7,3.85-4.03,3.85h-0.25
						c-2.32,0-4.16-1.75-4.03-3.83l0.17-2.77l0.04-0.69l0.08-1.37l0-0.03l0.04-0.67l0.02-0.27l0.05-0.81l0.02-0.28l0.04-0.67l0-0.04
						l0.05-0.77l0.03-0.58l0.02-0.36l0.02-0.36l2.44-40.86c0.05-1.52-0.62-2.99-1.82-3.94c-1.09-0.87-2.01-2.23-2.64-3.91
						c-0.54-1.42-0.8-2.94-0.8-4.46l1.23-16.44c0.01-0.12,0.11-0.22,0.23-0.22h0.03c0.13,0,0.23,0.1,0.23,0.23v16.64
						c0,0.26,0.11,0.49,0.28,0.66c0.17,0.17,0.4,0.28,0.66,0.28c0.52,0,0.94-0.42,0.94-0.94l0.9-16.65c0.01-0.11,0.1-0.21,0.21-0.22
						c0.01,0,0.02,0,0.03,0H244c0.13,0,0.23,0.1,0.23,0.23l0.29,16.64c0,0.52,0.43,0.95,0.96,0.94c0.52-0.01,0.92-0.44,0.92-0.95
						l0.36-16.63c0-0.13,0.11-0.23,0.23-0.23h0.14c0.12,0,0.23,0.1,0.23,0.22l0.76,16.65c0,0.51,0.41,0.93,0.92,0.94
						c0.53,0.01,0.96-0.43,0.96-0.96v-16.62c0-0.13,0.1-0.23,0.23-0.23c0.12,0,0.22,0.09,0.23,0.22l1.26,16.44
						c0,1.52-0.26,3.03-0.8,4.46c-0.63,1.67-1.55,3.03-2.64,3.91C247.1,191.28,246.44,192.74,246.48,194.27z"/>
					<path class="st0" d="M248.3,190.32c1.09-0.87,2.01-2.23,2.64-3.91c0.54-1.42,0.8-2.94,0.8-4.46l-1.26-16.44
						c-0.01-0.12-0.11-0.22-0.23-0.22c-0.13,0-0.23,0.1-0.23,0.23v16.62c0,0.53-0.43,0.97-0.96,0.96c-0.51-0.01-0.92-0.43-0.92-0.94
						l-0.76-16.65c-0.01-0.12-0.11-0.22-0.23-0.22H247c-0.13,0-0.23,0.1-0.23,0.23l-0.36,16.63c0,0.52-0.41,0.95-0.92,0.95
						c-0.53,0.01-0.96-0.42-0.96-0.94l-0.29-16.64c0-0.13-0.11-0.23-0.23-0.23h-0.07c-0.01,0-0.02,0-0.03,0
						c-0.11,0.01-0.2,0.1-0.21,0.22l-0.9,16.65c0,0.52-0.42,0.94-0.94,0.94c-0.26,0-0.49-0.11-0.66-0.28
						c-0.17-0.17-0.28-0.41-0.28-0.66v-16.64c0-0.13-0.1-0.23-0.23-0.23h-0.03c-0.12,0-0.22,0.09-0.23,0.22l-1.23,16.44
						c0,1.52,0.26,3.03,0.8,4.46c0.63,1.67,1.55,3.03,2.64,3.91c0.75,0.6,1.29,1.4,1.58,2.29c0.34-0.16,0.77-0.25,1.25-0.25
						c0.48,0,0.92,0.1,1.25,0.25C247.01,191.72,247.55,190.92,248.3,190.32z"/>
					<path class="st1" d="M250.02,175.93v6.22c0,0.53-0.43,0.97-0.96,0.96c-0.51-0.01-0.92-0.43-0.92-0.94l-0.23-5.02
						c-0.48,0.3-0.95,0.61-1.41,0.93l-0.09,4.08c0,0.52-0.41,0.95-0.92,0.95c-0.53,0.01-0.96-0.42-0.96-0.94l-0.05-2.6
						c-0.56,0.45-1.1,0.91-1.62,1.37l-0.07,1.23c0,0.52-0.42,0.94-0.94,0.94c-0.26,0-0.49-0.11-0.66-0.28
						c-0.05-0.05-0.1-0.11-0.13-0.17c-0.58,0.59-1.12,1.19-1.63,1.78c0.13,0.67,0.32,1.33,0.56,1.97c0.63,1.67,1.55,3.03,2.64,3.91
						c0.75,0.6,1.29,1.4,1.58,2.29c0.34-0.16,0.77-0.25,1.25-0.25c0.48,0,0.92,0.1,1.25,0.25c0.29-0.89,0.83-1.69,1.58-2.29
						c1.09-0.87,2.01-2.23,2.64-3.91c0.54-1.42,0.8-2.94,0.8-4.46l-0.51-6.65C250.82,175.51,250.41,175.72,250.02,175.93z"/>
				</g>
				<g>
					<path class="st0" d="M163.42,246.84c12.97-0.93,25.05-9.77,29.41-21.94c1.39-3.76,2.07-7.86,1.95-11.83
						c-0.09-2.48-0.49-6.33-0.67-8.84c0,0-0.75-9.21-0.75-9.21h13.7l-0.75,9.21c-0.26,2.84-0.48,6.79-0.86,9.57
						c-0.54,3.92-1.65,7.71-3.24,11.28c-5.29,11.89-16.56,20.86-29.28,23c-3.17,0.54-6.37,0.68-9.51,0.44V246.84L163.42,246.84z"/>
					<g>
						<path class="st2" d="M178.69,166.12c-6.78,0-13.02,2.33-17.95,6.22c-6.73,5.31-11.05,13.54-11.05,22.77
							c0,16.02,12.98,29,29,29c5.51,0,10.66-1.54,15.05-4.21c8.36-5.09,13.95-14.29,13.95-24.79
							C207.69,179.11,194.7,166.12,178.69,166.12z"/>
						<g>
							<g>
								<path class="st3" d="M207.32,194.31c0,10.5-5.58,19.7-13.95,24.79c-4.39,2.67-9.54,4.21-15.05,4.21c-16.02,0-29-12.98-29-29
									c0-9.24,4.32-17.46,11.05-22.77c4.94-3.9,11.17-6.22,17.95-6.22C194.34,165.31,207.32,178.29,207.32,194.31z"/>
								<circle class="st0" cx="178.33" cy="194.31" r="28.65"/>
								<circle class="st4" cx="178.33" cy="194.73" r="19.01"/>
								
									<linearGradient id="SVGID_00000145041786614513494050000013195464144782308531_" gradientUnits="userSpaceOnUse" x1="178.3253" y1="175.4175" x2="178.3253" y2="213.1372">
									<stop  offset="0" style="stop-color:#D1181F"/>
									<stop  offset="0.9946" style="stop-color:#F3F3F3"/>
								</linearGradient>
								
									<circle style="fill:url(#SVGID_00000145041786614513494050000013195464144782308531_);" cx="178.33" cy="194.33" r="19.01"/>
								<circle class="st0" cx="178.33" cy="194.33" r="15.29"/>
							</g>
							<path class="st6" d="M207.32,194.31c0,10.5-5.58,19.7-13.95,24.79c-0.01-0.13-0.02-0.25-0.04-0.38
								c-0.37-3.57-1.07-6.93-2.03-10.1c-0.03-0.1-0.06-0.21-0.1-0.31c-0.42-1.34-0.88-2.65-1.38-3.91
								c-4.16-10.49-11.08-18.49-17.48-24.15c-0.96-0.85-1.9-1.64-2.83-2.38c-0.1-0.08-0.2-0.16-0.3-0.24
								c-3.33-2.64-6.35-4.61-8.53-5.91c-0.11-0.06-0.21-0.13-0.32-0.19c4.94-3.9,11.17-6.22,17.95-6.22
								C194.34,165.31,207.32,178.29,207.32,194.31z"/>
						</g>
					</g>
				</g>
			</g>
		</g>
	</g>
</g>
</svg>
